<svg width="296" height="296" viewBox="0 0 296 296" fill="none" xmlns="http://www.w3.org/2000/svg">
<path d="M16.6067 295.016C12.2459 295.016 8.70947 291.48 8.70947 287.119V140.274C8.70947 79.5545 47.5069 26.2647 105.251 7.66932C119.013 3.23337 133.396 0.983887 148 0.983887C155.734 0.983887 163.455 1.62271 170.947 2.88303C217.254 10.6721 258.191 42.9806 276.404 86.2203C276.561 86.5793 276.726 86.9754 276.875 87.3887C283.786 104.162 287.29 121.954 287.29 140.274V287.119C287.29 291.48 283.754 295.017 279.393 295.017H16.6067V295.016Z" fill="#7A8BFC"/>
<path d="M279.166 140.054V209.271L264.831 239.291L279.166 269.311V286.898H214.873L141.616 264.83L63.4294 286.898H16.3799V267.07L32.9611 233.018L16.3799 198.518V140.054C16.3799 81.5496 54.6015 31.9829 107.446 14.9646C116.541 12.0295 126.083 10.0685 135.927 9.18686C139.823 8.84461 144.783 23.9996 148.784 23.9996C156.155 23.9996 163.698 24.6072 170.739 25.7918C183.44 27.8846 194.208 16.4649 205.395 21.9536C218.543 28.3633 230.455 36.9184 240.681 47.1448C264.451 70.9156 279.166 103.767 279.166 140.054Z" fill="#FFAE00"/>
<path d="M205.395 21.9541C204.973 41.3415 189.127 56.9115 169.648 56.9115C149.892 56.9115 133.875 40.9067 133.875 21.1383C133.875 16.9527 134.598 12.9255 135.928 9.18732C139.824 8.84507 143.773 8.66064 147.773 8.66064C155.144 8.66064 162.37 9.26594 169.411 10.4505C182.112 12.5433 194.207 16.4653 205.395 21.9541Z" fill="#7A8BFC"/>
<path d="M62.9322 232.844C62.9322 252.613 46.9147 268.63 27.159 268.63C23.3949 268.63 19.7752 268.051 16.3799 266.971V198.728C19.7758 197.649 23.3949 197.07 27.159 197.07C46.9147 197.07 62.9322 213.088 62.9322 232.844Z" fill="#7A8BFC"/>
<path d="M279.166 208.889V268.907C273.572 272.553 266.886 274.672 259.7 274.672C239.944 274.672 223.927 258.654 223.927 238.899C223.927 219.143 239.944 203.125 259.7 203.125C266.886 203.124 273.572 205.243 279.166 208.889Z" fill="#7A8BFC"/>
<path d="M26.4644 113.723V157.633H87.4005" stroke="#1E1E1F" stroke-width="2.2766" stroke-miterlimit="10" stroke-linecap="round" stroke-linejoin="round"/>
<path d="M41.6984 114.507H31.5049V155.056H41.6984V114.507Z" fill="#7A8BFC"/>
<path d="M57.1564 123.356H46.9629V155.057H57.1564V123.356Z" fill="#7A8BFC"/>
<path d="M72.6149 131.31H62.4214V155.057H72.6149V131.31Z" fill="#7A8BFC"/>
<path d="M71.1424 153.489H199.392C199.47 153.489 199.83 152.752 199.908 152.752C199.958 145.242 198.669 137.632 195.269 130.862C191.87 124.092 186.243 118.207 179.075 115.129C176.87 114.183 174.529 113.497 172.468 112.289C170.407 111.081 168.596 109.202 168.285 106.91C167.836 103.606 170.492 100.766 172.632 98.1355C176.322 93.5984 178.97 88.1767 179.526 82.4544C180.083 76.7321 178.407 70.7156 174.409 66.4219C171.61 63.4145 167.835 61.3691 163.915 59.896C156.03 56.9331 147.277 56.1162 138.941 57.565C131.384 58.8785 127.461 58.1015 119.885 59.3971C110.79 60.9528 98.8364 66.2513 94.8959 75.0301C92.1983 81.0403 91.6699 87.7622 92.6319 94.2245C93.2754 98.5454 95.7364 103.132 95.1566 107.506C94.4692 112.693 89.7315 116.353 85.7106 119.899C76.3068 128.192 70.1978 141.294 71.1424 153.489Z" fill="#1E1E1F"/>
<path d="M214.345 286.899H209.272L190.678 275.137L170.851 286.899H116.636L95.3535 276.705L77.5432 286.899H63.2884L63.4069 284.346C47.0731 284.175 33.9641 275.896 35.8725 245.229C35.9778 243.505 36.1356 241.767 36.3333 240.057C36.5703 238.043 36.86 236.029 37.2022 234.029C37.8075 230.554 38.5839 227.105 39.5188 223.697C40.9005 218.682 42.6117 213.76 44.6126 208.956C46.4418 204.573 48.4953 200.296 50.7593 196.136C51.1807 195.36 51.6149 194.596 52.049 193.82C53.6418 191.017 55.3264 188.253 57.0897 185.555C58.8929 182.817 60.7753 180.132 62.7623 177.513C64.1047 175.749 65.487 174.025 66.9213 172.327C68.5667 170.537 70.1854 168.747 71.9886 167.089C73.0286 166.141 74.0947 165.22 75.1868 164.325C80.8414 159.691 87.1522 161.296 94.262 157.942C101.119 154.706 108.745 146.436 115.948 145.945C116.926 145.878 117.903 145.844 118.877 145.844C128.52 145.844 136.998 146.438 146.641 146.438C146.641 146.438 146.681 146.438 146.746 146.451C147.023 146.491 156.481 157.259 157.941 157.522C169.517 159.608 178.532 152.657 189.313 157.186C191.111 157.942 192.897 158.747 194.671 159.609C197.609 161.037 200.532 162.609 202.897 164.863C207.611 169.354 208.839 177.432 209.975 183.58C210.08 184.133 210.172 184.698 210.277 185.277C214.076 206.185 214.581 227.925 214.581 249.138C214.581 249.954 214.595 250.757 214.595 251.56C214.753 267.183 214.503 280.516 214.345 286.899Z" fill="#ECECED"/>
<path d="M140.215 244.557C152.371 244.557 162.226 234.702 162.226 222.546C162.226 210.389 152.371 200.535 140.215 200.535C128.059 200.535 118.204 210.389 118.204 222.546C118.204 234.702 128.059 244.557 140.215 244.557Z" fill="#7A8BFC"/>
<path d="M189.337 156.98C187.666 167.47 178.571 175.499 167.608 175.499C155.446 175.499 145.588 165.64 145.588 153.492C145.588 151.031 145.996 148.662 146.746 146.451C148.51 146.674 171.898 149.728 189.337 156.98Z" fill="#7A8BFC"/>
<path d="M116.356 153.492C116.356 165.64 106.497 175.499 94.3492 175.499C86.1231 175.499 78.963 170.997 75.1855 164.325C78.7393 161.389 82.5167 158.718 86.4914 156.362C91.5719 153.335 97.0341 150.624 102.693 148.86C105.918 147.846 109.208 147.03 112.538 146.438H115.197C115.948 148.649 116.356 151.031 116.356 153.492Z" fill="#7A8BFC"/>
<path d="M71.3296 215.655C71.3296 227.816 61.4714 237.661 49.31 237.661C44.8347 237.661 40.6757 236.332 37.2012 234.028C37.8065 230.553 38.5829 227.105 39.5177 223.696C40.8994 218.682 42.6107 213.759 44.6116 208.955C46.4408 204.572 48.4943 200.295 50.7582 196.136C51.1797 195.359 51.6138 194.596 52.048 193.819C62.9196 195.162 71.3296 204.428 71.3296 215.655Z" fill="#7A8BFC"/>
<path d="M119.041 276.818C119.041 280.45 118.159 283.885 116.606 286.899H77.4761C76.173 284.386 75.344 281.582 75.1069 278.607C75.0936 278.515 75.0809 278.41 75.0809 278.304C75.0416 277.818 75.0283 277.317 75.0283 276.817C75.0283 264.971 84.3731 255.324 96.1004 254.837C96.2056 254.823 96.3241 254.823 96.4426 254.823C96.6404 254.81 96.8375 254.81 97.0352 254.81C109.196 254.811 119.041 264.656 119.041 276.818Z" fill="#7A8BFC"/>
<path d="M212.134 276.475C212.134 280.239 211.186 283.793 209.502 286.899H170.741C169.056 283.793 168.108 280.239 168.108 276.475C168.108 264.327 177.967 254.469 190.115 254.469C202.276 254.469 212.134 264.327 212.134 276.475Z" fill="#7A8BFC"/>
<path d="M214.029 227.277C212.805 227.487 211.554 227.592 210.278 227.592C198.13 227.592 188.271 217.734 188.271 205.573C188.271 193.53 197.972 183.737 209.975 183.58C212.186 195.504 213.397 211.39 214.029 227.277Z" fill="#7A8BFC"/>
<path d="M171.078 90.1849C171.096 89.797 171.114 89.4091 171.12 89.0206C171.307 76.6747 164.157 65.8835 153.64 60.6896C149.512 58.6609 144.871 57.4885 139.95 57.4139C122.471 57.1491 108.086 70.8709 107.825 88.0626C107.767 91.9193 108.691 95.3649 109.688 99.0493C110.01 99.9315 110.388 100.79 110.792 101.636C109.546 101.325 108.267 101.158 106.987 101.243C105.055 101.371 103.129 102.067 101.701 103.375C100.223 104.731 99.3618 106.656 98.964 108.621C98.1789 112.503 99.2329 116.851 102.149 119.529C104.362 121.561 107.456 122.49 110.458 122.384C111.154 122.36 111.845 122.258 112.528 122.12L113.439 147.461L124.532 152.882C133.705 157.365 144.723 155.408 151.791 148.041L151.883 137.047L151.936 130.002C157.045 129.664 161.337 128.994 163.72 127.808C171.455 123.956 171.402 99.3575 171.078 90.1849Z" fill="#FFAE00"/>
<g opacity="0.73">
<path d="M171.078 90.1849C171.096 89.797 171.114 89.4091 171.12 89.0206C171.307 76.6747 164.157 65.8835 153.64 60.6896C149.512 58.6609 144.871 57.4885 139.95 57.4139C122.471 57.1491 108.086 70.8709 107.825 88.0626C107.767 91.9193 108.691 95.3649 109.688 99.0493C110.01 99.9315 110.388 100.79 110.792 101.636C109.546 101.325 108.267 101.158 106.987 101.243C105.055 101.371 103.129 102.067 101.701 103.375C100.223 104.731 99.3618 106.656 98.964 108.621C98.1789 112.503 99.2329 116.851 102.149 119.529C104.362 121.561 107.456 122.49 110.458 122.384C111.154 122.36 111.845 122.258 112.528 122.12L113.439 147.461L124.532 152.882C133.705 157.365 144.723 155.408 151.791 148.041L151.883 137.047L151.936 130.002C157.045 129.664 161.337 128.994 163.72 127.808C171.455 123.956 171.402 99.3575 171.078 90.1849Z" fill="#FFEAB2"/>
</g>
<path d="M153.295 93.9678C153.849 96.678 154.404 99.3889 154.959 102.099C155.089 102.736 155.22 103.38 155.205 104.029C155.166 105.712 154.051 107.321 152.49 107.949" stroke="#1E1E1F" stroke-width="1.7075" stroke-miterlimit="10" stroke-linecap="round" stroke-linejoin="round"/>
<path d="M134.612 89.9116C135.473 88.7675 136.773 87.9622 138.181 87.6997C139.589 87.4372 141.091 87.7205 142.307 88.4779" stroke="#1E1E1F" stroke-width="1.7075" stroke-miterlimit="10" stroke-linecap="round" stroke-linejoin="round"/>
<path d="M159.815 88.7669C162.036 87.6396 164.975 88.1587 166.675 89.9792" stroke="#1E1E1F" stroke-width="1.7075" stroke-miterlimit="10" stroke-linecap="round" stroke-linejoin="round"/>
<path d="M144.924 108.91C145.745 110.315 147.104 111.396 148.658 111.878C150.212 112.361 151.945 112.24 153.418 111.547L144.924 108.91Z" fill="#ECECED"/>
<path d="M152.263 137.056C151.331 137.38 150.362 137.603 149.383 137.726C146.366 138.119 143.298 137.709 140.336 137.063C136.766 136.283 133.239 135.14 130.104 133.289C128.329 132.247 126.306 130.801 124.795 129.088C132.269 129.577 145.684 130.344 152.32 129.981L152.263 137.056Z" fill="#1E1E1F"/>
<path d="M142.632 98.8675C142.573 100.553 141.158 101.871 139.472 101.812C137.786 101.752 136.468 100.338 136.527 98.6519C136.587 96.9661 138.002 95.648 139.687 95.7075C141.374 95.7671 142.692 97.1817 142.632 98.8675Z" fill="#1E1E1F"/>
<path d="M165.805 98.7752C165.746 100.461 164.331 101.779 162.645 101.72C160.959 101.66 159.641 100.245 159.701 98.5596C159.76 96.8738 161.175 95.5557 162.861 95.6152C164.547 95.6748 165.865 97.0894 165.805 98.7752Z" fill="#1E1E1F"/>
<g opacity="0.53">
<g opacity="0.24">
<path d="M139.693 113.349C139.6 119.528 134.514 124.462 128.335 124.368C122.155 124.274 117.222 119.189 117.315 113.01C117.409 106.83 122.494 101.896 128.674 101.99C134.853 102.084 139.787 107.169 139.693 113.349Z" fill="#1E1E1F"/>
</g>
<g opacity="0.24">
<path d="M171.046 102.675C170.712 110.623 169.675 119.587 166.844 124.529C162.169 123.13 158.791 118.758 158.868 113.637C158.962 107.464 164.059 102.532 170.232 102.625C170.507 102.629 170.783 102.646 171.046 102.675Z" fill="#1E1E1F"/>
</g>
</g>
<path d="M111.797 115.859C111.609 115.856 111.437 115.741 111.366 115.559C110.79 114.075 109.494 112.9 107.811 112.338C106.22 111.806 104.416 112.018 102.992 112.904C102.771 113.042 102.482 112.972 102.345 112.753C102.209 112.533 102.276 112.243 102.496 112.106C104.156 111.074 106.256 110.828 108.108 111.447C109.268 111.835 110.271 112.477 111.035 113.303C110.623 111.252 109.872 109.367 108.823 107.767C107.277 105.409 105.074 103.664 102.62 102.855C102.373 102.774 102.24 102.508 102.321 102.261C102.402 102.016 102.667 101.88 102.914 101.963C105.568 102.838 107.946 104.717 109.607 107.252C111.096 109.522 112.017 112.323 112.271 115.35C112.291 115.583 112.137 115.795 111.909 115.847C111.872 115.856 111.834 115.859 111.797 115.859Z" fill="#1E1E1F"/>
<path d="M110.699 101.85C113.31 103.738 115.964 105.701 117.88 108.291C117.84 105.652 117.352 102.922 117.037 100.302C125.252 95.6762 133.162 90.2296 139.222 83.0065C145.282 75.7834 149.382 66.5947 149.114 57.1701C144.294 57.0678 139.309 57.0805 134.498 57.4025C125.407 58.0113 115.909 58.9213 108.257 63.8671C106.857 64.7719 105.526 65.8143 104.483 67.1145C102.007 70.2005 101.414 74.3572 101.12 78.3023C100.514 86.4533 100.793 95.1599 101.963 103.25C104.334 101.842 107.941 101.889 110.699 101.85Z" fill="#1E1E1F"/>
<path d="M102.746 185.683C102.746 185.683 122.895 157.777 124.726 156.915C126.558 156.053 144.767 157.13 144.767 157.13C144.767 157.13 151.017 156.484 153.279 158.639C155.112 160.385 154.47 170.406 154.16 174.147C154.089 174.996 153.227 175.526 152.431 175.223C151.155 174.737 149.571 173.542 149.508 170.598C149.508 170.598 144.013 179.757 141.104 178.248C141.104 178.248 137.548 187.084 131.191 191.285C124.834 195.488 118.261 198.181 118.261 198.181L102.746 185.683Z" fill="#FFAE00"/>
<path opacity="0.73" d="M102.746 185.683C102.746 185.683 122.895 157.777 124.726 156.915C126.558 156.053 144.767 157.13 144.767 157.13C144.767 157.13 151.017 156.484 153.279 158.639C155.112 160.385 154.47 170.406 154.16 174.147C154.089 174.996 153.227 175.526 152.431 175.223C151.155 174.737 149.571 173.542 149.508 170.598C149.508 170.598 144.013 179.757 141.104 178.248C141.104 178.248 137.548 187.084 131.191 191.285C124.834 195.488 118.261 198.181 118.261 198.181L102.746 185.683Z" fill="#FFEAB2"/>
<path d="M122.141 159.959C122.141 159.959 123.757 157.292 125.131 156.807C126.504 156.322 151.044 156.107 153.28 158.639C155.173 160.784 154.709 170.792 153.934 174.199C153.778 174.884 153.099 175.329 152.418 175.157C151.179 174.842 149.32 173.892 149.374 171.03" stroke="#1E1E1F" stroke-width="1.6424" stroke-miterlimit="10" stroke-linecap="round" stroke-linejoin="round"/>
<path d="M127.232 158.343C127.232 158.343 151.394 160.282 152.04 163.919C152.687 167.555 144.714 179.165 141.104 178.249" stroke="#1E1E1F" stroke-width="1.6424" stroke-miterlimit="10" stroke-linecap="round" stroke-linejoin="round"/>
<path d="M128.444 159.797C128.444 159.797 147.192 164.969 148.242 167.474C149.293 169.979 147.03 174.303 147.03 174.303" stroke="#1E1E1F" stroke-width="1.6424" stroke-miterlimit="10" stroke-linecap="round" stroke-linejoin="round"/>
<path d="M127.151 164.889C127.151 164.889 141.05 173.858 141.536 175.152C141.997 176.382 140.961 178.117 140.301 179.112C139.466 180.369 138.324 181.423 136.992 182.134C134.292 183.574 130.853 183.475 128.076 182.268C126.8 181.713 124.883 179.95 125.716 178.379C126.274 177.328 129.764 176.886 130.788 176.848" stroke="#1E1E1F" stroke-width="1.6424" stroke-miterlimit="10" stroke-linecap="round" stroke-linejoin="round"/>
<path d="M130.06 174.182L128.687 177.091" stroke="#1E1E1F" stroke-width="1.6424" stroke-miterlimit="10" stroke-linecap="round" stroke-linejoin="round"/>
<path d="M63.4065 284.345C63.4065 284.345 76.7212 282.402 94.6813 257.325C112.492 232.459 124.589 204.23 124.589 204.23L99.6375 181.8L39.9062 240.188L63.4065 284.345Z" fill="#ECECED"/>
<path d="M40.8022 238.619L99.7219 181.94L123.917 202.999C123.917 202.999 102.634 250.045 85.16 269.535C73.6097 282.418 63.4064 284.345 63.4064 284.345" stroke="#1E1E1F" stroke-width="1.6424" stroke-miterlimit="10" stroke-linecap="round" stroke-linejoin="round"/>
<path d="M156.625 253.966L174.771 159.874L246.349 160.546L229.21 247.917L156.625 253.966Z" fill="#1E1E1F"/>
<path d="M214.51 207.255C215.954 199.973 214.075 193.465 210.312 192.719C206.55 191.973 202.329 197.272 200.885 204.554C199.442 211.836 201.321 218.344 205.083 219.09C208.846 219.836 213.066 214.537 214.51 207.255Z" fill="#ECECED"/>
<path d="M233.579 220.698L236.436 212.464C236.436 212.464 262.983 243.716 251.053 257.662C239.124 271.608 218.121 253.126 209.888 248.589C201.655 244.053 192.182 236.04 192.97 233.661C193.758 231.283 212.913 242.54 212.913 242.54C212.913 242.54 193.758 223.386 195.775 219.017C197.791 214.649 209.72 224.562 209.72 224.562C209.72 224.562 200.983 214.312 203.84 210.784C206.696 207.256 227.867 229.602 227.867 229.602C227.867 229.602 210.225 204.903 214.089 201.711C217.953 198.518 233.579 220.698 233.579 220.698Z" fill="#FFAE00"/>
<path opacity="0.73" d="M233.579 220.698L236.436 212.464C236.436 212.464 262.983 243.716 251.053 257.662C239.124 271.608 218.121 253.126 209.888 248.589C201.655 244.053 192.182 236.04 192.97 233.661C193.758 231.283 212.913 242.54 212.913 242.54C212.913 242.54 193.758 223.386 195.775 219.017C197.791 214.649 209.72 224.562 209.72 224.562C209.72 224.562 200.983 214.312 203.84 210.784C206.696 207.256 227.867 229.602 227.867 229.602C227.867 229.602 210.225 204.903 214.089 201.711C217.953 198.518 233.579 220.698 233.579 220.698Z" fill="#FFEAB2"/>
<path d="M262.926 112.606C262.926 128.624 249.936 141.614 233.918 141.614C217.887 141.614 204.896 128.624 204.896 112.606C204.896 96.7199 217.65 83.848 233.47 83.611C233.615 83.5977 233.773 83.5977 233.918 83.5977C240.288 83.5977 246.198 85.6639 250.989 89.165C251.186 89.2968 251.37 89.4413 251.568 89.5864C254.042 91.4815 256.201 93.7588 257.952 96.3517C261.097 100.984 262.926 106.578 262.926 112.606Z" fill="#7A8BFC"/>
<path d="M251.568 89.5864L233.471 112.935V83.611C233.615 83.5977 233.774 83.5977 233.918 83.5977C240.552 83.5977 246.685 85.835 251.568 89.5864Z" fill="#0017C1"/>
<path d="M257.951 96.3517L233.471 112.935L250.989 89.165C251.187 89.2969 251.371 89.4414 251.568 89.5865C254.042 91.4816 256.201 93.7588 257.951 96.3517Z" fill="#ECECED"/>
<path d="M264.383 130.302V188.101H250.605" stroke="#1E1E1F" stroke-width="2.2766" stroke-miterlimit="10" stroke-linecap="round" stroke-linejoin="round"/>
<path d="M253.293 185.189H246.46V192.022H253.293V185.189Z" fill="#1E1E1F"/>
<path d="M63.9331 118.596V60.7964H77.711" stroke="#1E1E1F" stroke-width="2.2766" stroke-miterlimit="10" stroke-linecap="round" stroke-linejoin="round"/>
<path d="M75.0226 63.709H81.8555V56.8761H75.0226V63.709Z" fill="#1E1E1F"/>
</svg>
