<svg width="103" height="52" viewBox="0 0 103 52" fill="none" xmlns="http://www.w3.org/2000/svg">
<path d="M26.0002 47.6666C23.0391 47.6666 20.2404 47.0979 17.6043 45.9604C14.9682 44.8229 12.6661 43.2701 10.6981 41.3021C8.73002 39.334 7.17725 37.0319 6.03975 34.3958C4.90225 31.7597 4.3335 28.9611 4.3335 26C4.3335 23.0028 4.90225 20.1951 6.03975 17.5771C7.17725 14.959 8.73002 12.666 10.6981 10.6979C12.6661 8.72984 14.9682 7.17706 17.6043 6.03956C20.2404 4.90206 23.0391 4.33331 26.0002 4.33331C28.9974 4.33331 31.805 4.90206 34.4231 6.03956C37.0411 7.17706 39.3342 8.72984 41.3022 10.6979C43.2703 12.666 44.8231 14.959 45.9606 17.5771C47.0981 20.1951 47.6668 23.0028 47.6668 26C47.6668 28.9611 47.0981 31.7597 45.9606 34.3958C44.8231 37.0319 43.2703 39.334 41.3022 41.3021C39.3342 43.2701 37.0411 44.8229 34.4231 45.9604C31.805 47.0979 28.9974 47.6666 26.0002 47.6666ZM26.0002 43.225C26.9391 41.925 27.7516 40.5708 28.4377 39.1625C29.1238 37.7542 29.6835 36.2555 30.1168 34.6666H21.8835C22.3168 36.2555 22.8766 37.7542 23.5627 39.1625C24.2488 40.5708 25.0613 41.925 26.0002 43.225ZM20.3668 42.3583C19.7168 41.1666 19.1481 39.9298 18.6606 38.6479C18.1731 37.366 17.7668 36.0389 17.4418 34.6666H11.0502C12.0974 36.4722 13.4064 38.043 14.9772 39.3792C16.5481 40.7153 18.3446 41.7083 20.3668 42.3583ZM31.6335 42.3583C33.6557 41.7083 35.4522 40.7153 37.0231 39.3792C38.5939 38.043 39.9029 36.4722 40.9502 34.6666H34.5585C34.2335 36.0389 33.8272 37.366 33.3397 38.6479C32.8522 39.9298 32.2835 41.1666 31.6335 42.3583ZM9.2085 30.3333H16.5752C16.4668 29.6111 16.3856 28.8979 16.3314 28.1937C16.2772 27.4896 16.2502 26.7583 16.2502 26C16.2502 25.2416 16.2772 24.5104 16.3314 23.8062C16.3856 23.1021 16.4668 22.3889 16.5752 21.6666H9.2085C9.02794 22.3889 8.89252 23.1021 8.80225 23.8062C8.71197 24.5104 8.66683 25.2416 8.66683 26C8.66683 26.7583 8.71197 27.4896 8.80225 28.1937C8.89252 28.8979 9.02794 29.6111 9.2085 30.3333ZM20.9085 30.3333H31.0918C31.2002 29.6111 31.2814 28.8979 31.3356 28.1937C31.3897 27.4896 31.4168 26.7583 31.4168 26C31.4168 25.2416 31.3897 24.5104 31.3356 23.8062C31.2814 23.1021 31.2002 22.3889 31.0918 21.6666H20.9085C20.8002 22.3889 20.7189 23.1021 20.6647 23.8062C20.6106 24.5104 20.5835 25.2416 20.5835 26C20.5835 26.7583 20.6106 27.4896 20.6647 28.1937C20.7189 28.8979 20.8002 29.6111 20.9085 30.3333ZM35.4252 30.3333H42.7918C42.9724 29.6111 43.1078 28.8979 43.1981 28.1937C43.2884 27.4896 43.3335 26.7583 43.3335 26C43.3335 25.2416 43.2884 24.5104 43.1981 23.8062C43.1078 23.1021 42.9724 22.3889 42.7918 21.6666H35.4252C35.5335 22.3889 35.6147 23.1021 35.6689 23.8062C35.7231 24.5104 35.7502 25.2416 35.7502 26C35.7502 26.7583 35.7231 27.4896 35.6689 28.1937C35.6147 28.8979 35.5335 29.6111 35.4252 30.3333ZM34.5585 17.3333H40.9502C39.9029 15.5278 38.5939 13.9569 37.0231 12.6208C35.4522 11.2847 33.6557 10.2916 31.6335 9.64165C32.2835 10.8333 32.8522 12.0701 33.3397 13.3521C33.8272 14.634 34.2335 15.9611 34.5585 17.3333ZM21.8835 17.3333H30.1168C29.6835 15.7444 29.1238 14.2458 28.4377 12.8375C27.7516 11.4291 26.9391 10.075 26.0002 8.77498C25.0613 10.075 24.2488 11.4291 23.5627 12.8375C22.8766 14.2458 22.3168 15.7444 21.8835 17.3333ZM11.0502 17.3333H17.4418C17.7668 15.9611 18.1731 14.634 18.6606 13.3521C19.1481 12.0701 19.7168 10.8333 20.3668 9.64165C18.3446 10.2916 16.5481 11.2847 14.9772 12.6208C13.4064 13.9569 12.0974 15.5278 11.0502 17.3333Z" fill="#7A8BFC"/>
<path d="M64.752 38C64.224 38 63.816 37.868 63.528 37.604C63.264 37.316 63.132 36.908 63.132 36.38V14.24C63.132 13.712 63.264 13.316 63.528 13.052C63.816 12.764 64.224 12.62 64.752 12.62H78.144C78.552 12.62 78.864 12.728 79.08 12.944C79.296 13.16 79.404 13.46 79.404 13.844C79.404 14.252 79.296 14.564 79.08 14.78C78.864 14.996 78.552 15.104 78.144 15.104H66.012V23.888H77.388C77.796 23.888 78.108 23.996 78.324 24.212C78.54 24.404 78.648 24.704 78.648 25.112C78.648 25.52 78.54 25.832 78.324 26.048C78.108 26.264 77.796 26.372 77.388 26.372H66.012V35.516H78.144C78.552 35.516 78.864 35.624 79.08 35.84C79.296 36.056 79.404 36.356 79.404 36.74C79.404 37.148 79.296 37.46 79.08 37.676C78.864 37.892 78.552 38 78.144 38H64.752ZM91.9767 38.324C90.8487 38.324 89.7447 38.228 88.6647 38.036C87.5847 37.844 86.5767 37.568 85.6407 37.208C84.7287 36.848 83.9007 36.392 83.1567 35.84C82.8687 35.624 82.6647 35.384 82.5447 35.12C82.4487 34.832 82.4247 34.556 82.4727 34.292C82.5447 34.004 82.6647 33.764 82.8327 33.572C83.0247 33.38 83.2527 33.272 83.5167 33.248C83.7807 33.224 84.0687 33.308 84.3807 33.5C85.4607 34.268 86.6127 34.832 87.8367 35.192C89.0607 35.528 90.4407 35.696 91.9767 35.696C94.1367 35.696 95.7327 35.3 96.7647 34.508C97.8207 33.692 98.3487 32.624 98.3487 31.304C98.3487 30.224 97.9647 29.384 97.1967 28.784C96.4527 28.16 95.1927 27.668 93.4167 27.308L89.6727 26.552C87.4167 26.072 85.7247 25.292 84.5967 24.212C83.4927 23.108 82.9407 21.644 82.9407 19.82C82.9407 18.692 83.1687 17.672 83.6247 16.76C84.0807 15.824 84.7167 15.032 85.5327 14.384C86.3487 13.712 87.3207 13.196 88.4487 12.836C89.5767 12.476 90.8247 12.296 92.1927 12.296C93.7047 12.296 95.1087 12.512 96.4047 12.944C97.7247 13.352 98.9127 13.976 99.9687 14.816C100.233 15.032 100.413 15.284 100.509 15.572C100.605 15.836 100.617 16.1 100.545 16.364C100.473 16.604 100.341 16.808 100.149 16.976C99.9807 17.144 99.7527 17.24 99.4647 17.264C99.2007 17.288 98.9007 17.192 98.5647 16.976C97.6047 16.256 96.6087 15.74 95.5767 15.428C94.5447 15.092 93.4047 14.924 92.1567 14.924C90.8847 14.924 89.7807 15.116 88.8447 15.5C87.9327 15.884 87.2127 16.448 86.6847 17.192C86.1807 17.912 85.9287 18.752 85.9287 19.712C85.9287 20.864 86.2767 21.776 86.9727 22.448C87.6927 23.12 88.8567 23.612 90.4647 23.924L94.2087 24.716C96.6327 25.22 98.4207 25.988 99.5727 27.02C100.749 28.028 101.337 29.408 101.337 31.16C101.337 32.216 101.121 33.188 100.689 34.076C100.257 34.964 99.6327 35.732 98.8167 36.38C98.0007 37.004 97.0167 37.484 95.8647 37.82C94.7127 38.156 93.4167 38.324 91.9767 38.324Z" fill="#3252F6"/>
</svg>
