<svg width="48" height="80" viewBox="0 0 48 80" fill="none" xmlns="http://www.w3.org/2000/svg">
<path d="M22.6996 33.1035V48.5256C22.6996 48.5256 21.0962 46.6666 16.4915 46.6666C11.8869 46.6666 9.37927 50.3561 9.37927 50.3561C9.37927 50.3561 11.8874 54.0174 16.4915 54.0174C21.0957 54.0174 22.6996 52.1729 22.6996 52.1729V59.3998H24.3851V33.1035H22.6996Z" fill="#2C7C5B"/>
<path d="M32.2791 41.6214C27.6744 41.6214 26.0711 43.4804 26.0711 43.4804V33.1035H24.3856V59.3994H26.0711V47.1273C26.0711 47.1273 27.6744 48.9718 32.2791 48.9718C36.8838 48.9718 39.3914 45.3104 39.3914 45.3104C39.3914 45.3104 36.8833 41.6214 32.2791 41.6214Z" fill="#135B3B"/>
<path d="M26.0298 45.8978V44.9134C26.0298 44.9134 32.8132 43.5295 32.8132 45.4054C32.8132 47.2812 26.0298 45.8978 26.0298 45.8978Z" fill="#0B3F26"/>
<path d="M22.6361 50.8802V49.8959C22.6361 49.8959 15.8527 48.512 15.8527 50.3879C15.8521 52.2641 22.6361 50.8802 22.6361 50.8802Z" fill="#135B3B"/>
<path d="M24.1931 53.7655H7.78813C7.78813 53.7655 0 57.9477 0 64.1464C0 70.345 8.78212 75 8.78212 75H24.1923L24.1931 53.7655Z" fill="#FFAE00"/>
<path d="M23.8069 53.7655H40.2118C40.2118 53.7655 48 57.9477 48 64.1464C48 70.345 39.2179 75 39.2179 75H23.8076V53.7655H23.8069Z" fill="#FE8A04"/>
<path d="M25.8673 9.01539C26.9641 7.91857 26.9641 6.14027 25.8673 5.04345C24.7705 3.94664 22.9922 3.94663 21.8954 5.04345C20.7986 6.14027 20.7986 7.91857 21.8954 9.01539C22.9922 10.1122 24.7705 10.1122 25.8673 9.01539Z" fill="#F9C852"/>
<path d="M11.1678 8.12637C11.5699 7.29816 11.2244 6.30085 10.3962 5.89881C9.56799 5.49677 8.57068 5.84224 8.16864 6.67044C7.76659 7.49865 8.11207 8.49596 8.94027 8.89801C9.76848 9.30005 10.7658 8.95457 11.1678 8.12637Z" fill="#0017C1"/>
<path d="M18.9099 5.97093C18.643 5.76996 15.868 7.79668 12.6632 10.536C9.45851 13.2753 7.02459 15.7009 7.18158 15.9959C6.86968 15.6185 6.62334 15.247 6.4369 14.8813C5.02678 12.1175 7.01865 9.6642 9.8498 7.24425C12.6736 4.83053 15.4003 3.24656 17.9054 5.04755C18.2446 5.29153 18.5795 5.59679 18.9099 5.97093Z" fill="#3252F6"/>
<path d="M18.9175 5.97829C19.1325 6.22975 16.681 8.67818 13.4418 11.4468C10.2028 14.2155 7.40262 16.2561 7.18768 16.0045C6.97274 15.7531 9.42422 13.3047 12.6634 10.536C15.9026 7.76738 18.7026 5.72684 18.9175 5.97829Z" fill="#0017C1"/>
<path d="M18.9099 5.97098C18.643 5.77001 15.868 7.79672 12.6632 10.536C9.4585 13.2753 7.02459 15.701 7.18157 15.996C6.86967 15.6185 6.62334 15.247 6.43689 14.8813C7.12777 13.5727 10.344 8.18898 17.9053 5.04773C18.2446 5.29158 18.5795 5.59684 18.9099 5.97098Z" fill="#7A8BFC"/>
<path d="M39.2603 8.5543C39.8982 7.89052 39.8773 6.8353 39.2135 6.19739C38.5497 5.55948 37.4945 5.58045 36.8566 6.24423C36.2187 6.90801 36.2396 7.96323 36.9034 8.60114C37.5672 9.23905 38.6224 9.21808 39.2603 8.5543Z" fill="#0017C1"/>
<path d="M28.8187 5.97093C29.0857 5.76996 31.8607 7.79668 35.0654 10.536C38.2701 13.2753 40.7041 15.7009 40.5471 15.9959C40.8591 15.6185 41.1053 15.247 41.2918 14.8813C42.7019 12.1175 40.71 9.6642 37.8789 7.24425C35.055 4.83053 32.3283 3.24656 29.8233 5.04755C29.484 5.29153 29.1492 5.59679 28.8187 5.97093Z" fill="#3252F6"/>
<path d="M28.8111 5.97829C28.5962 6.22975 31.0476 8.67818 34.2868 11.4468C37.526 14.2154 40.326 16.2561 40.541 16.0045C40.7559 15.7531 38.3044 13.3047 35.0652 10.536C31.8262 7.76752 29.026 5.72684 28.8111 5.97829Z" fill="#0017C1"/>
<path d="M28.8187 5.97098C29.0857 5.77001 31.8607 7.79672 35.0654 10.536C38.2701 13.2753 40.7041 15.701 40.5471 15.996C40.8591 15.6185 41.1053 15.247 41.2918 14.8813C40.6009 13.5727 37.3847 8.18898 29.8233 5.04773C29.484 5.29158 29.1492 5.59684 28.8187 5.97098Z" fill="#7A8BFC"/>
<path d="M15.7727 45.0072C15.2827 45.0072 14.8084 44.8481 14.4117 44.5462C13.9324 44.1815 13.6239 43.6518 13.5429 43.055C13.462 42.4582 13.6183 41.8655 13.9831 41.3863C14.736 40.3969 16.1536 40.2046 17.143 40.9576C17.6222 41.3224 17.9308 41.852 18.0117 42.4488C18.0926 43.0456 17.9363 43.6383 17.5716 44.1176C17.2069 44.5968 16.6773 44.9054 16.0805 44.9863C15.9775 45.0003 15.8748 45.0072 15.7727 45.0072ZM15.7785 41.7633C15.48 41.7633 15.1847 41.8976 14.9904 42.1529C14.8304 42.3632 14.7619 42.6231 14.7973 42.8849C14.8329 43.1467 14.9681 43.379 15.1784 43.539C15.3886 43.699 15.6485 43.7676 15.9103 43.7319C16.1722 43.6964 16.4044 43.5611 16.5643 43.3509C16.7243 43.1406 16.7928 42.8807 16.7574 42.6191C16.7218 42.3572 16.5865 42.125 16.3763 41.965C16.1977 41.829 15.9872 41.7633 15.7785 41.7633Z" fill="#0017C1"/>
<path d="M17.4574 44.251L16.7081 43.2307C16.7081 43.2307 16.7018 43.2347 16.691 43.2438C16.7087 43.2287 17.125 42.8603 17.0557 41.829C16.9843 40.7667 16.3787 38.8497 13.8986 35.7497L14.8871 34.9589C16.2686 36.6856 17.2473 38.2584 17.7963 39.6335C18.2391 40.7431 18.4073 41.7326 18.2961 42.5748C18.1455 43.716 17.5274 44.1997 17.4574 44.251Z" fill="#0017C1"/>
<path d="M32.6742 45.0071C32.5721 45.0071 32.4693 45.0002 32.3664 44.9862C31.7696 44.9053 31.24 44.5967 30.8753 44.1175C30.5105 43.6382 30.3542 43.0456 30.4352 42.4487C30.5161 41.8519 30.8246 41.3223 31.3039 40.9576C32.2933 40.2044 33.7107 40.3968 34.4638 41.3862C34.8286 41.8655 34.9849 42.4581 34.9039 43.055C34.823 43.6518 34.5144 44.1814 34.0352 44.5461C33.6385 44.8481 33.1642 45.0071 32.6742 45.0071ZM32.6682 41.7632C32.4594 41.7632 32.249 41.8289 32.0704 41.9649C31.8602 42.1249 31.7249 42.3572 31.6894 42.619C31.6538 42.8807 31.7224 43.1407 31.8825 43.351C32.0424 43.5612 32.2747 43.6965 32.5364 43.732C32.7982 43.7677 33.0581 43.6989 33.2684 43.5391C33.4786 43.379 33.6139 43.1468 33.6494 42.885C33.685 42.6231 33.6164 42.3632 33.4563 42.153C33.2622 41.8975 32.9669 41.7632 32.6682 41.7632Z" fill="#0017C1"/>
<path d="M30.9894 44.251C30.9194 44.1995 30.3014 43.716 30.1507 42.5749C30.0395 41.7327 30.2076 40.7432 30.6505 39.6336C31.1995 38.2585 32.1784 36.6858 33.5597 34.959L34.5482 35.7498C31.5445 39.5045 31.29 41.5337 31.4056 42.4092C31.4824 42.9905 31.7362 43.229 31.7386 43.2308L30.9894 44.251Z" fill="#0017C1"/>
<path d="M36 36C42.6274 29.3726 42.6274 18.6274 36 12C29.3726 5.37258 18.6274 5.37258 12 12C5.37258 18.6274 5.37258 29.3726 12 36C18.6274 42.6274 29.3726 42.6274 36 36Z" fill="#3252F6"/>
<path d="M33.6503 33.6503C38.98 28.3206 38.98 19.6794 33.6503 14.3497C28.3206 9.01997 19.6794 9.01997 14.3497 14.3497C9.01993 19.6794 9.01993 28.3206 14.3497 33.6503C19.6794 38.98 28.3206 38.98 33.6503 33.6503Z" fill="#7A8BFC"/>
<path d="M32.6993 32.6993C37.5038 27.8948 37.5038 20.1052 32.6993 15.3007C27.8948 10.4962 20.1052 10.4962 15.3007 15.3007C10.4962 20.1052 10.4962 27.8948 15.3007 32.6993C20.1052 37.5038 27.8948 37.5038 32.6993 32.6993Z" fill="#ECECED"/>
<path d="M33.0396 24.099C33.0396 23.8862 33.212 23.7137 33.4248 23.7137H35.186C35.3988 23.7137 35.5713 23.8862 35.5713 24.099C35.5713 24.1949 35.5361 24.2826 35.4782 24.3501C35.4075 24.4323 35.3028 24.4842 35.186 24.4842H33.4248C33.212 24.4842 33.0396 24.3117 33.0396 24.099Z" fill="#7A8BFC"/>
<path d="M12.4296 24.099C12.4296 23.8862 12.602 23.7137 12.8149 23.7137H14.5761C14.7888 23.7137 14.9613 23.8862 14.9613 24.099C14.9613 24.1949 14.9261 24.2826 14.8682 24.3501C14.7975 24.4323 14.6928 24.4842 14.5761 24.4842H12.8149C12.602 24.4842 12.4296 24.3117 12.4296 24.099Z" fill="#7A8BFC"/>
<path d="M24.0004 15.0597C23.7877 15.0597 23.6152 14.8873 23.6152 14.6745V12.9132C23.6152 12.7005 23.7877 12.5279 24.0004 12.5279C24.0964 12.5279 24.1841 12.563 24.2516 12.621C24.3336 12.6917 24.3856 12.7964 24.3856 12.9131V14.6743C24.3856 14.8873 24.2132 15.0597 24.0004 15.0597Z" fill="#7A8BFC"/>
<path d="M24.0004 35.6698C23.7877 35.6698 23.6152 35.4973 23.6152 35.2846V33.5234C23.6152 33.3107 23.7877 33.1382 24.0004 33.1382C24.0964 33.1382 24.1841 33.1734 24.2516 33.2313C24.3336 33.302 24.3856 33.4067 24.3856 33.5234V35.2846C24.3856 35.4973 24.2132 35.6698 24.0004 35.6698Z" fill="#7A8BFC"/>
<path d="M28.6014 31.8796C28.7845 31.7713 29.0208 31.832 29.1291 32.0151L30.0255 33.5312C30.1338 33.7143 30.073 33.9505 29.8899 34.0588C29.8073 34.1077 29.714 34.1222 29.6263 34.1065C29.5197 34.0876 29.4216 34.0238 29.3621 33.9233L28.4657 32.4072C28.3575 32.2241 28.4183 31.9879 28.6014 31.8796Z" fill="#7A8BFC"/>
<path d="M18.1107 14.1391C18.2939 14.0308 18.5301 14.0916 18.6386 14.2747L19.535 15.7907C19.6433 15.9739 19.5825 16.2101 19.3994 16.3184C19.3168 16.3672 19.2233 16.3818 19.1358 16.3661C19.0292 16.3472 18.9311 16.2834 18.8716 16.1829L17.9752 14.6668C17.8669 14.4837 17.9276 14.2474 18.1107 14.1391Z" fill="#7A8BFC"/>
<path d="M31.7811 19.498C31.6728 19.3148 31.7335 19.0786 31.9167 18.9703L33.4327 18.0739C33.6158 17.9656 33.8521 18.0263 33.9604 18.2094C34.0092 18.292 34.0237 18.3855 34.0081 18.4731C33.989 18.5797 33.9254 18.6778 33.8248 18.7372L32.3088 19.6337C32.1256 19.7418 31.8894 19.6811 31.7811 19.498Z" fill="#7A8BFC"/>
<path d="M14.0406 29.9886C13.9323 29.8054 13.993 29.5692 14.1762 29.4609L15.6921 28.5645C15.8752 28.4562 16.1115 28.5169 16.2198 28.7C16.2686 28.7826 16.2831 28.8761 16.2675 28.9637C16.2484 29.0703 16.1848 29.1684 16.0842 29.2278L14.5683 30.1243C14.3852 30.2324 14.1489 30.1717 14.0406 29.9886Z" fill="#7A8BFC"/>
<path d="M31.9796 28.3465C32.0796 28.1586 32.313 28.0874 32.5008 28.1874L34.0554 29.0149C34.2433 29.1149 34.3145 29.3483 34.2145 29.5361C34.1694 29.6208 34.0972 29.6818 34.0142 29.7141C33.9133 29.7534 33.7965 29.7501 33.6933 29.6952L32.1387 28.8676C31.9507 28.7675 31.8796 28.5343 31.9796 28.3465Z" fill="#7A8BFC"/>
<path d="M13.7866 18.6618C13.8866 18.474 14.1199 18.4028 14.3078 18.5028L15.8624 19.3303C16.0502 19.4303 16.1215 19.6637 16.0215 19.8515C15.9764 19.9363 15.9042 19.9971 15.8212 20.0295C15.7202 20.0688 15.6035 20.0655 15.5003 20.0105L13.9457 19.183C13.7578 19.0829 13.6866 18.8495 13.7866 18.6618Z" fill="#7A8BFC"/>
<path d="M28.2479 16.1199C28.0601 16.0199 27.9888 15.7866 28.0888 15.5988L28.9164 14.0441C29.0164 13.8563 29.2497 13.785 29.4375 13.885C29.5222 13.9301 29.5832 14.0023 29.6156 14.0853C29.6548 14.1863 29.6515 14.303 29.5966 14.4062L28.7691 15.9609C28.6689 16.1487 28.4357 16.2199 28.2479 16.1199Z" fill="#7A8BFC"/>
<path d="M18.5632 34.3128C18.3754 34.2128 18.3042 33.9795 18.4042 33.7916L19.2317 32.237C19.3317 32.0492 19.565 31.9779 19.7529 32.0779C19.8375 32.123 19.8985 32.1952 19.9309 32.2782C19.9701 32.3792 19.9668 32.4959 19.9119 32.5991L19.0844 34.1537C18.9844 34.3416 18.751 34.4128 18.5632 34.3128Z" fill="#7A8BFC"/>
<path d="M25.1081 19.5187C25.1081 19.9957 24.5945 20.0046 23.9609 20.0046C23.3273 20.0046 22.8137 19.9957 22.8137 19.5187C22.8137 19.0416 23.9609 17.7101 23.9609 17.7101C23.9609 17.7101 25.1081 19.0416 25.1081 19.5187Z" fill="#43315C"/>
<path d="M24.1982 19.3321H23.7235V23.0111H24.1982V19.3321Z" fill="#43315C"/>
<path d="M30.5388 24.8703C30.0617 24.8703 30.0529 24.5692 30.0529 24.1978C30.0529 23.8264 30.0617 23.5253 30.5388 23.5253C31.0158 23.5253 32.3473 24.1978 32.3473 24.1978C32.3473 24.1978 31.0158 24.8703 30.5388 24.8703Z" fill="#43315C"/>
<path d="M31.8726 24.0001H24.1587V24.4748H31.8726V24.0001Z" fill="#43315C"/>
<path d="M24.1589 24.1187C24.0901 24.1187 24.0235 24.0829 23.987 24.019C23.9329 23.9241 23.9658 23.8032 24.0607 23.7492L31.0626 19.7537C31.1574 19.6996 31.2782 19.7325 31.3324 19.8274C31.3866 19.9223 31.3536 20.0432 31.2587 20.0973L24.2568 24.0927C24.2258 24.1103 24.1921 24.1187 24.1589 24.1187Z" fill="#F9C852"/>
<path d="M25.2028 25.2028C25.8671 24.5385 25.8671 23.4615 25.2028 22.7972C24.5385 22.133 23.4615 22.133 22.7973 22.7972C22.133 23.4615 22.133 24.5385 22.7973 25.2028C23.4615 25.867 24.5385 25.867 25.2028 25.2028Z" fill="#0017C1"/>
</svg>
