<svg width="200" height="468" viewBox="0 0 200 468" fill="none" xmlns="http://www.w3.org/2000/svg">
<path d="M79.7 213.19C79.623 213.19 79.547 213.189 79.47 213.186C79.394 213.189 79.317 213.19 79.24 213.19H6C2.686 213.19 0 210.504 0 207.19V96.38C0 91.308 0.395999 86.257 1.175 81.366C4.222 61.807 13.136 43.878 26.949 29.537C42.138 13.759 62.415 3.54799 84.041 0.787994C88.085 0.265994 92.239 0 96.381 0C115.251 0 133.529 5.465 149.245 15.806C149.751 16.127 150.264 16.465 150.785 16.823C155.678 20.161 160.307 24.001 164.533 28.227L165.272 28.977C167.14 30.887 168.914 32.855 170.593 34.874C170.958 35.316 171.298 35.741 171.638 36.166C173.166 38.068 174.63 40.043 175.979 42.023C183.039 52.339 187.955 63.764 190.585 75.966C192.027 82.608 192.76 89.479 192.76 96.38V207.19C192.76 210.504 190.074 213.19 186.76 213.19H79.7Z" fill="#7A8BFC"/>
<path d="M171.445 110.593L187.787 141.742V207.107H132.637L110.424 193.061L82.5941 207.107H7.02705C7.04705 206.667 7.05706 205.117 7.04706 202.667C7.06406 195.616 24.2421 178.957 24.2111 162.593C24.1871 150.109 6.95005 138.722 6.96705 126.437C6.98705 104.857 7.11706 87.337 7.49706 87.007C7.75706 84.417 8.13706 81.847 8.61706 79.297C10.3921 69.992 32.1651 71.017 36.6371 62.849C40.0281 56.656 25.5981 40.949 30.2771 35.787C30.9371 35.047 31.6071 34.327 32.2971 33.617C82.7771 -19.763 171.377 9.63704 185.777 76.357C187.147 82.687 171.505 103.643 171.445 110.593Z" fill="#7A8BFC"/>
<path d="M72.8869 67.617C72.8869 85.947 58.0269 100.807 39.6969 100.807C25.4769 100.807 13.3469 91.867 8.61694 79.297C11.7369 62.937 19.4269 47.757 30.2769 35.787C33.2669 34.897 36.4269 34.427 39.6969 34.427C58.0269 34.427 72.8869 49.287 72.8869 67.617Z" fill="#FFAE00"/>
<path d="M187.787 96.297V141.567C185.487 142.067 183.087 142.337 180.637 142.337C162.307 142.337 147.447 127.477 147.447 109.147C147.447 90.817 162.307 75.957 180.637 75.957C182.387 75.957 184.107 76.097 185.777 76.357C187.147 82.687 187.847 89.347 187.787 96.297Z" fill="#FFAE00"/>
<path d="M140.637 185.397C140.637 193.697 137.587 201.287 132.567 207.107H82.3268C77.3068 201.287 74.2568 193.697 74.2568 185.397C74.2568 167.067 89.1168 152.207 107.447 152.207C125.777 152.207 140.637 167.067 140.637 185.397Z" fill="#FFAE00"/>
<path d="M156.167 146.047C156.187 146.297 156.087 146.567 155.897 146.787C153.877 148.917 147.697 154.357 138.077 153.147C137.457 153.077 136.807 152.977 136.157 152.837C136.157 152.837 136.597 154.307 136.887 156.477C136.897 156.497 136.897 156.527 136.897 156.547C136.917 156.657 136.927 156.757 136.937 156.867C137.097 158.137 137.187 159.607 137.107 161.167C136.987 163.857 136.367 166.787 134.677 169.237C133.197 171.407 131.107 173.767 128.997 175.947C128.817 176.127 128.647 176.317 128.467 176.497C125.877 179.127 123.297 181.457 121.757 182.817C121.297 183.227 120.927 183.547 120.677 183.757C120.637 183.787 120.597 183.817 120.557 183.847C120.357 183.967 120.137 184.017 119.907 183.987C119.857 183.987 119.807 183.977 119.757 183.967C118.747 183.697 116.517 182.847 114.807 180.387C114.757 180.317 114.707 180.237 114.657 180.167L114.647 180.187L114.317 180.537L113.617 181.317L112.747 182.277L112.037 183.067C111.777 183.347 111.397 183.457 111.027 183.367C109.207 182.887 103.867 181.247 103.587 178.437C103.587 178.437 59.937 189.587 43.127 193.137C33.197 195.247 17.897 199.527 7.04704 202.667C7.07704 190.237 6.92704 154.827 6.96704 126.437C21.817 122.527 42.417 116.967 55.787 112.807C78.727 105.667 103.027 97.297 103.027 97.297L107.847 98.537L113.007 99.857L115.467 100.487L123.347 102.507L130.237 104.277L148.627 109.007C148.797 109.057 148.947 109.137 149.077 109.237C149.377 109.517 149.487 109.957 149.317 110.357C148.607 112.107 146.437 115.567 140.137 117.867C137.107 118.977 134.137 119.527 131.557 119.767C126.697 120.227 123.187 119.607 123.187 119.607L137.387 130.797L142.907 135.147L155.777 145.297C156.027 145.487 156.167 145.757 156.167 146.047Z" fill="#FFEAB2"/>
<path d="M131.561 172.835C132.311 171.779 132.095 170.219 131.235 169.25C130.376 168.281 129.004 167.869 127.712 167.964C126.42 168.059 125.199 168.608 124.107 169.305C121.264 171.119 119.086 174.131 118.766 177.488C118.655 178.651 118.774 179.866 119.319 180.899C119.864 181.932 120.884 182.755 122.047 182.864C125.028 179.818 129.095 176.31 131.561 172.835Z" fill="#FE8A04"/>
<path d="M115.159 168.156C112.289 169.706 110.188 172.61 109.614 175.821C109.42 176.904 109.396 178.043 109.76 179.081C110.124 180.119 110.92 181.043 111.971 181.367C113.022 181.691 114.306 181.298 114.846 180.34C113.09 176.452 113.044 171.861 115.159 168.156Z" fill="#FE8A04"/>
<path d="M110.75 183.398C110.424 183.398 110.096 183.352 109.775 183.257C107.831 182.681 106.041 181.697 104.864 180.557C103.454 179.19 101.443 175.851 102.85 172.008C104.756 166.801 109.049 162.104 109.231 161.906C109.374 161.751 109.614 161.742 109.769 161.884C109.924 162.026 109.934 162.268 109.792 162.422C109.748 162.469 105.418 167.208 103.565 172.27C102.292 175.747 104.116 178.771 105.395 180.01C106.486 181.067 108.161 181.985 109.992 182.527C110.987 182.822 112.074 182.511 112.758 181.736L114.367 179.91C114.505 179.753 114.745 179.736 114.905 179.877C115.063 180.016 115.078 180.256 114.939 180.414L113.33 182.24C112.671 182.987 111.723 183.398 110.75 183.398Z" fill="#490F37"/>
<path d="M119.368 184.404C118.687 184.404 118.01 184.242 117.401 183.908C116.752 183.551 116.208 183.082 115.637 182.385C114.495 180.993 113.727 179.414 113.415 177.82C111.384 167.44 122.739 157.386 123.223 156.964C123.381 156.827 123.622 156.841 123.76 157.001C123.898 157.159 123.882 157.399 123.724 157.538C123.609 157.639 112.216 167.727 114.162 177.674C114.45 179.146 115.163 180.609 116.225 181.903C116.731 182.52 117.206 182.932 117.766 183.24C119.09 183.969 120.816 183.693 121.962 182.571C125.45 179.159 133.718 170.926 135.159 168.196C136.958 164.785 136.967 160.081 136.967 160.034C136.967 159.824 137.136 159.653 137.347 159.652H137.348C137.558 159.652 137.728 159.822 137.729 160.032C137.73 160.232 137.723 164.97 135.833 168.552C134.342 171.378 126.009 179.678 122.495 183.116C121.634 183.96 120.495 184.404 119.368 184.404Z" fill="#490F37"/>
<path d="M149.073 109.241C148.947 109.316 148.812 109.38 148.676 109.444C144.5 111.407 139.507 110.645 135.258 108.833C133.328 108.013 130.677 106.567 130.234 104.278L148.627 109.005C148.798 109.054 148.947 109.133 149.073 109.241Z" fill="#FE8A04"/>
<path d="M156.169 146.046C155.931 146.135 155.683 146.204 155.436 146.263C154.346 146.503 153.222 146.425 152.122 146.267C149.096 145.808 146.048 144.565 144.147 142.161C142.639 140.234 142.267 137.542 142.908 135.145L155.78 145.294C156.024 145.489 156.163 145.761 156.169 146.046Z" fill="#FE8A04"/>
<path d="M161.45 40.743C161.45 40.743 161.443 40.875 161.41 41.127L161.408 41.168C161.138 43.482 159.443 55.036 150.933 70.655C141.538 87.896 125.724 86.818 123.313 100.053C121.875 107.94 138.057 126.583 139.409 137.386C140.385 145.182 138.31 152.812 137.077 156.46C136.599 157.859 136.253 158.675 136.253 158.675C136.253 158.675 102.763 167.362 70.3231 148.574C70.2341 148.519 70.1451 148.473 70.0561 148.418C69.9181 148.34 69.7791 148.262 69.6511 148.184C69.6731 147.941 69.7021 147.577 69.7561 147.112C69.8731 146.01 70.0901 144.344 70.4761 142.34C71.7041 135.988 74.5991 126.223 81.2681 120.412C91.7671 111.258 106.997 104.418 108.616 96.368C110.235 88.318 90.8081 75.731 90.5961 59.282C90.4641 48.276 91.7281 38.815 92.5751 33.755C92.9971 31.255 93.3131 29.838 93.3131 29.838L113.389 33.054L161.45 40.743Z" fill="#FE8A04"/>
<path d="M137.077 156.461C136.599 157.86 136.253 158.676 136.253 158.676C136.253 158.676 102.763 167.363 70.3231 148.575C70.2341 148.52 70.1451 148.474 70.0561 148.419C69.9181 148.341 69.7791 148.263 69.6511 148.185C69.6731 147.942 69.7021 147.578 69.7561 147.113C69.8731 146.011 70.0901 144.345 70.4761 142.341C77.3481 146.34 90.7121 153.423 102.664 155.678C116.349 158.254 131.67 157.03 137.077 156.461Z" fill="#490F37"/>
<path d="M134.466 142.625C136.206 151.75 134.104 154.938 134.104 154.938C134.104 154.938 118.241 158.025 99.8092 153.063C81.3772 148.1 74.3242 141.256 74.3242 141.256C74.3242 141.256 77.1892 128.298 91.7902 119.434C106.381 110.569 111.542 108.625 112.793 101.817C114.053 95.0291 110.225 76.5471 100.718 56.1791C100.682 56.0861 100.636 55.9921 100.59 55.8981L146.789 63.7761L147.172 63.8461C147.172 63.8461 116.248 87.455 115.251 102.063C114.244 116.681 131.293 125.983 134.466 142.625Z" fill="#C9CDFD"/>
<path d="M146.789 63.776C140.95 64.252 128.321 64.921 117.667 63.129C106.761 61.294 102.254 57.771 100.718 56.178C100.682 56.085 100.636 55.991 100.59 55.897L146.789 63.776Z" fill="#490F37"/>
<path d="M147.968 53.053C146.22 55.994 145.021 59.29 144.711 62.697C144.639 63.488 144.617 64.305 144.874 65.057C145.13 65.809 145.714 66.491 146.488 66.669C147.574 66.918 148.618 66.148 149.389 65.344C152.12 62.497 153.686 58.563 153.657 54.618C153.647 53.322 153.479 50.721 151.915 50.275C150.183 49.779 148.702 51.817 147.968 53.053Z" fill="#7A8BFC"/>
<path d="M142.511 71.931C142.56 72.57 142.837 73.207 143.338 73.605C144.004 74.136 145 74.159 145.743 73.742C146.486 73.325 146.972 72.523 147.102 71.681C147.31 70.332 146.367 68.513 144.84 68.457C143.225 68.398 142.409 70.604 142.511 71.931Z" fill="#7A8BFC"/>
<path d="M66.9181 143.994C66.9181 143.994 83.0522 153.539 100.919 156.753C123.038 160.732 138.323 156.189 138.323 156.189L137.011 161.573C137.011 161.573 120.969 165.689 98.8632 161.451C76.7572 157.213 64.4731 148.672 64.4731 148.672L66.9181 143.994Z" fill="#FFAE00"/>
<path d="M161.41 41.128L161.408 41.169L92.5771 33.757C92.9991 31.257 93.3152 29.84 93.3152 29.84L113.391 33.056L161.41 41.128Z" fill="#490F37"/>
<path d="M90.8601 30.403L163.133 41.69L163.542 37.039L91.2431 26.27L90.8601 30.403Z" fill="#FFAE00"/>
<path d="M37.1051 134.779L89.1441 126.799C90.3681 126.611 91.4831 127.549 91.4831 128.787C91.4841 132.512 90.5301 139.91 83.6531 144.932C74.1291 151.888 54.7231 159.208 54.7231 159.208L37.4731 178.576L36.4131 134.745L37.1051 134.779Z" fill="#FFEAB2"/>
<path d="M74.225 129.129C73.153 129.43 72.011 129.81 71.361 130.714C70.912 131.339 70.765 132.132 70.729 132.901C70.69 133.726 70.77 134.574 71.116 135.324C71.927 137.082 73.99 137.903 75.914 138.116C77.899 138.336 79.907 138.09 81.871 137.729C83.732 137.387 85.61 136.929 87.225 135.942C88.839 134.955 90.173 133.36 90.44 131.486C90.63 130.145 90.169 128.678 89.188 127.732C87.962 126.548 86.758 126.812 85.18 126.99C81.478 127.406 77.811 128.122 74.225 129.129Z" fill="#FE8A04"/>
<path d="M38.303 176.272C38.177 176.272 38.053 176.209 37.981 176.094C37.869 175.916 37.921 175.682 38.099 175.569C41.804 173.226 44.769 169.181 47.386 165.612C49.596 162.596 51.505 159.992 53.496 158.826C55.771 157.492 59.8 155.886 64.066 154.186C67.973 152.628 72.013 151.018 75.281 149.407C82.143 146.025 85.361 143.476 88.524 138.922C91.028 135.315 91.437 130.549 90.926 128.317C90.782 127.688 90.554 127.232 90.316 127.097C89.07 126.581 72.153 129.768 61.787 131.905L30.308 138.48C30.107 138.52 29.901 138.391 29.858 138.185C29.815 137.979 29.947 137.777 30.153 137.734L61.633 131.159C66.213 130.217 89.134 125.551 90.691 126.435C91.137 126.687 91.466 127.263 91.668 128.148C92.209 130.516 91.786 135.559 89.148 139.356C85.9 144.034 82.612 146.642 75.617 150.091C72.321 151.715 68.267 153.331 64.346 154.894C60.108 156.583 56.105 158.179 53.879 159.483C52.024 160.57 50.158 163.116 47.998 166.063C45.342 169.687 42.331 173.794 38.505 176.214C38.443 176.252 38.373 176.272 38.303 176.272Z" fill="#490F37"/>
<path d="M60.4031 132.104C60.3451 132.104 60.2861 132.09 60.2311 132.063L49.7311 126.728C49.5431 126.632 49.4691 126.403 49.5641 126.215C49.6591 126.029 49.8881 125.954 50.0761 126.048L60.5761 131.383C60.7641 131.479 60.8381 131.708 60.7431 131.896C60.6761 132.028 60.5421 132.104 60.4031 132.104Z" fill="#490F37"/>
<path d="M66.8439 130.485C66.6499 130.485 66.4839 130.337 66.4659 130.138L65.6319 121.012C65.6119 120.803 65.7669 120.617 65.9759 120.599C66.1819 120.587 66.3709 120.734 66.3899 120.944L67.2239 130.07C67.2439 130.279 67.0889 130.465 66.8799 130.483C66.8679 130.484 66.8559 130.485 66.8439 130.485Z" fill="#490F37"/>
<path d="M61.693 36.6981L68.54 25.2531L66.514 37.7891L77.812 40.5461L67.64 43.3311L66.58 53.8641L61.354 44.4441L52.13 48.1941L57.292 40.968L51.136 33.981L61.693 36.6981Z" fill="#0017C1"/>
<path d="M163.898 95.6471L170.745 84.2031L168.72 96.7381L180.017 99.4961L169.845 102.281L168.785 112.814L163.559 103.394L154.336 107.144L159.497 99.9181L153.341 92.9311L163.898 95.6471Z" fill="#0017C1"/>
<path d="M154.362 180.674L151.048 167.756L158.53 178.016L168.438 171.928L163.26 181.116L169.998 189.28L159.628 186.366L155.802 195.558L154.299 186.806L145.003 186.264L154.362 180.674Z" fill="#0017C1"/>
<path d="M27.1552 115.921L27.4292 102.587L31.8832 114.478L43.0622 111.274L35.6082 118.734L39.9082 128.408L30.7002 122.817L24.5482 130.645L25.4492 121.811L16.6392 118.793L27.1552 115.921Z" fill="#0017C1"/>
<path d="M82.5943 467.19C82.5145 467.19 82.4357 467.189 82.3559 467.186C82.2771 467.189 82.1974 467.19 82.1176 467.19H6.21789C2.78354 467.19 0 464.504 0 461.19V350.38C0 345.308 0.409363 340.257 1.21769 335.366C4.37534 315.807 13.613 297.878 27.9276 283.537C43.6682 267.759 64.6816 257.548 87.0929 254.788C91.2838 254.266 95.5886 254 99.881 254C119.436 254 138.378 259.465 154.665 269.806C155.189 270.127 155.72 270.465 156.261 270.823C161.331 274.161 166.128 278.001 170.508 282.227L171.274 282.977C173.21 284.887 175.049 286.855 176.788 288.874C177.166 289.316 177.519 289.741 177.871 290.166C179.454 292.068 180.972 294.043 182.37 296.023C189.686 306.339 194.782 317.764 197.507 329.966C199.001 336.608 199.761 343.479 199.761 350.38V461.19C199.761 464.504 196.977 467.19 193.543 467.19H82.5943Z" fill="#7A8BFC"/>
<path d="M194.011 350.297V380.295L169.007 435.955L167.155 461.107H92.9376L68.3304 445.53L37.9902 461.107H6.68624C6.74531 453.706 6.03752 364.157 7.2697 341.353C7.42308 338.513 37.1539 327.543 37.3726 327.061C41.1116 304.188 23.9254 293.51 42.1075 279.517C67.6848 258.65 103.385 255.386 133.553 266.163C144.408 270.041 141.792 290.096 150.485 297.444C159.958 305.451 180.47 301.061 185.564 312.776C191.124 324.474 194.011 337.229 194.011 350.297Z" fill="#FFD14D"/>
<path d="M185.566 312.767C185.566 312.767 185.576 312.777 185.566 312.777C179.286 323.437 167.41 330.637 153.792 330.637C133.626 330.637 117.283 314.857 117.283 295.397C117.283 283.037 123.242 272.394 133.221 266.104C140.103 268.644 147.222 271.727 153.212 275.687C158.01 278.847 162.487 282.437 166.58 286.387C166.84 286.637 167.088 286.887 167.347 287.137C169.13 288.897 170.84 290.727 172.477 292.627C172.819 293.027 173.151 293.427 173.482 293.827C174.964 295.607 176.374 297.437 177.7 299.317C180.705 303.547 183.348 308.047 185.566 312.767Z" fill="#7A8BFC"/>
<path d="M63.8297 311.747C63.8297 331.197 47.487 346.977 27.3204 346.977C19.8693 346.977 12.9363 344.817 7.16406 341.127C7.34024 339.477 7.55785 337.847 7.82729 336.227C10.8533 317.487 19.8485 300.667 32.875 287.617C35.756 284.727 38.8442 282.017 42.1086 279.517C54.9071 284.997 63.8297 297.367 63.8297 311.747Z" fill="#7A8BFC"/>
<path d="M101.935 437.867C101.935 446.767 98.5152 454.907 92.8673 461.107H37.9738C32.3362 454.907 28.906 446.767 28.906 437.867C28.906 418.407 45.2591 402.637 65.4154 402.637C85.582 402.637 101.935 418.407 101.935 437.867Z" fill="#7A8BFC"/>
<path d="M194.012 380.527V461.107H166.974C144.828 454.577 121.781 445.017 121.781 445.017C121.781 445.017 97.4377 444.507 81.8204 443.487C70.8562 442.767 68.2447 437.897 67.6643 435.057C67.4364 433.957 68.1722 432.897 69.3017 432.687L69.7681 432.597L75.9756 431.437L80.4836 430.597L111.19 424.847L91.0851 425.357C91.0851 425.357 85.7999 425.647 78.9809 425.907C77.4575 425.967 75.8512 426.027 74.2139 426.077C72.0583 426.147 69.8303 426.207 67.6436 426.257C61.8195 426.377 56.2442 426.387 52.7207 426.127C45.2282 425.567 39.7253 422.057 38.6268 418.467C38.3367 417.517 38.3159 416.047 39.0103 415.307C39.0828 415.227 39.1657 415.147 39.259 415.087L58.2132 406.847C57.1561 406.967 56.0887 407.027 55.0317 407.027H54.9902C49.5289 407.017 44.2436 405.507 40.3057 403.307C40.2849 403.297 40.2642 403.287 40.2435 403.277C37.29 401.627 35.1137 399.587 34.2018 397.527C33.694 396.387 33.3934 395.457 33.2691 394.707C33.0411 393.337 33.4349 392.567 34.3365 392.247L44.14 388.877L54.0161 385.477L60.1718 383.357L62.7729 382.467C61.8195 382.507 60.8661 382.527 59.9024 382.547C57.6225 382.597 55.3322 382.597 53.042 382.557C51.6533 382.527 50.275 382.477 48.8967 382.417C44.1607 382.207 38.9066 381.967 34.5127 379.927C33.6525 379.547 32.8235 379.077 32.0462 378.537C30.6057 377.537 28.9995 375.807 28.9166 373.977C28.8648 372.967 29.1238 370.727 30.2949 370.337C33.2691 369.357 39.4351 367.317 47.1039 364.817C49.1143 364.167 51.2284 363.487 53.415 362.787C54.9488 362.287 56.524 361.777 58.1303 361.267C79.7685 354.327 106.008 346.207 110.402 346.207C111.366 346.207 113.874 346.957 117.542 348.277C119.387 348.937 121.522 349.747 123.905 350.677C141.232 357.427 171.306 370.507 194.012 380.527Z" fill="#7A8BFC"/>
<g opacity="0.52">
<path d="M194.012 380.527V461.107H166.974C144.828 454.577 121.781 445.017 121.781 445.017C121.781 445.017 97.4377 444.507 81.8204 443.487C70.8562 442.767 68.2447 437.897 67.6643 435.057C67.4364 433.957 68.1722 432.897 69.3017 432.687L69.7681 432.597L75.9756 431.437L80.4836 430.597L111.19 424.847L91.0851 425.357C91.0851 425.357 85.7999 425.647 78.9809 425.907C77.4575 425.967 75.8512 426.027 74.2139 426.077C72.0583 426.147 69.8303 426.207 67.6436 426.257C61.8195 426.377 56.2442 426.387 52.7207 426.127C45.2282 425.567 39.7253 422.057 38.6268 418.467C38.3367 417.517 38.3159 416.047 39.0103 415.307C39.0828 415.227 39.1657 415.147 39.259 415.087L58.2132 406.847C57.1561 406.967 56.0887 407.027 55.0317 407.027H54.9902C49.5289 407.017 44.2436 405.507 40.3057 403.307C40.2849 403.297 40.2642 403.287 40.2435 403.277C37.29 401.627 35.1137 399.587 34.2018 397.527C33.694 396.387 33.3934 395.457 33.2691 394.707C33.0411 393.337 33.4349 392.567 34.3365 392.247L44.14 388.877L54.0161 385.477L60.1718 383.357L62.7729 382.467C61.8195 382.507 60.8661 382.527 59.9024 382.547C57.6225 382.597 55.3322 382.597 53.042 382.557C51.6533 382.527 50.275 382.477 48.8967 382.417C44.1607 382.207 38.9066 381.967 34.5127 379.927C33.6525 379.547 32.8235 379.077 32.0462 378.537C30.6057 377.537 28.9995 375.807 28.9166 373.977C28.8648 372.967 29.1238 370.727 30.2949 370.337C33.2691 369.357 39.4351 367.317 47.1039 364.817C49.1143 364.167 51.2284 363.487 53.415 362.787C54.9488 362.287 56.524 361.777 58.1303 361.267C79.7685 354.327 106.008 346.207 110.402 346.207C111.366 346.207 113.874 346.957 117.542 348.277C119.387 348.937 121.522 349.747 123.905 350.677C141.232 357.427 171.306 370.507 194.012 380.527Z" fill="#490F37"/>
</g>
<path d="M142.457 420.537L78.1021 437.907L75.8128 438.47C73.6915 438.991 71.5163 437.832 70.8447 435.822L26.4314 302.967C25.4884 300.147 27.2812 297.167 30.2865 296.547L31.5612 296.287L98.7869 284.247C99.8336 284.037 101.917 285.627 102.227 286.607L143.929 419.007C144.281 420.097 143.607 420.257 142.457 420.537Z" fill="#490F37"/>
<path d="M144.53 421.537L78.1019 437.907L31.561 296.287L99.8231 282.247C100.87 282.037 101.916 282.627 102.227 283.607L146.001 419.007C146.354 420.097 145.68 421.257 144.53 421.537Z" fill="#FE8A04"/>
<path d="M38.9231 301.718L81.4555 433.602L139.787 418.276L98.5982 288.678L91.4953 290.226C89.8268 290.59 88.4517 291.725 87.8205 293.259L87.2288 294.698C86.4526 296.587 84.7375 297.968 82.6732 298.368L58.2514 303.101C56.5664 303.428 54.816 303.066 53.4159 302.103L51.5869 300.844C50.4148 300.038 48.9484 299.738 47.539 300.016L38.9231 301.718Z" fill="#ECECED"/>
<path d="M69.6311 336.664C70.0031 336.572 70.2871 336.518 70.4809 336.501C70.6757 336.485 70.8954 336.506 71.1431 336.565C71.3897 336.625 71.599 336.787 71.77 337.056C71.94 337.326 72.0903 337.699 72.2177 338.178C72.341 338.642 72.3898 339.03 72.3659 339.339C72.34 339.648 72.2302 339.887 72.0353 340.055C71.8405 340.223 71.6498 340.346 71.4633 340.424C71.2767 340.502 71.0063 340.584 70.6498 340.673L61.5499 342.929C60.9913 343.068 60.4566 342.986 59.9447 342.68C59.4338 342.377 59.1063 341.954 58.9632 341.415C58.7487 340.607 58.841 339.79 59.241 338.965C59.641 338.14 60.1871 337.381 60.8815 336.691C61.5737 336.002 62.2681 335.318 62.9655 334.642C63.6619 333.967 64.2215 333.257 64.6443 332.515C65.0671 331.772 65.1884 331.063 65.0091 330.389C64.9967 330.344 64.9728 330.282 64.9355 330.203C64.8982 330.126 64.805 329.992 64.6557 329.805C64.5065 329.619 64.3448 329.465 64.1718 329.34C63.9977 329.215 63.7531 329.12 63.438 329.055C63.122 328.99 62.779 329.002 62.4069 329.095C61.7851 329.248 61.3406 329.546 61.0691 329.989C60.7986 330.431 60.6856 330.831 60.7312 331.186L60.7747 331.726L60.811 331.861C60.8991 332.19 60.953 332.44 60.9727 332.61C60.9944 332.782 60.9685 332.983 60.8981 333.215C60.8286 333.448 60.6576 333.643 60.384 333.798C60.1104 333.952 59.726 334.093 59.2306 334.216C58.8264 334.316 58.4824 334.361 58.1995 334.352C57.9166 334.342 57.6907 334.302 57.5228 334.232C57.3559 334.162 57.2098 334.034 57.0855 333.849C56.9632 333.665 56.8782 333.502 56.8326 333.362C56.787 333.222 56.7248 333.009 56.6502 332.724C56.2357 331.167 56.4419 329.628 57.2699 328.107C58.0958 326.585 59.4493 325.59 61.326 325.126C63.1883 324.664 64.8682 324.914 66.3636 325.877C67.86 326.838 68.8217 328.121 69.2476 329.723C69.4756 330.576 69.4963 331.432 69.3129 332.292C69.1274 333.152 68.8217 333.886 68.3979 334.493C67.9719 335.101 67.5305 335.65 67.0745 336.138C66.6175 336.628 66.2143 336.995 65.8661 337.241L65.3438 337.609L65.3739 337.721L69.6311 336.664Z" fill="#FFD14D"/>
<path d="M74.7255 328.028C75.08 328.244 75.367 328.761 75.5867 329.586C75.6665 329.949 75.7183 330.22 75.7401 330.398C75.7618 330.577 75.739 330.802 75.6727 331.074C75.6043 331.347 75.4281 331.569 75.1432 331.744C74.8592 331.918 74.453 332.07 73.9255 332.201C73.0871 332.408 72.4643 332.395 72.0539 332.163C71.7026 331.963 71.4155 331.442 71.1927 330.604C71.1171 330.319 71.0684 330.107 71.0476 329.969C71.0259 329.829 71.0259 329.638 71.0435 329.396C71.0611 329.151 71.1295 328.958 71.2497 328.817C71.3689 328.677 71.5616 328.529 71.8269 328.377C72.0922 328.223 72.4342 328.094 72.8529 327.99C73.6913 327.781 74.3152 327.793 74.7255 328.028ZM76.6323 335.192C76.9837 335.392 77.2707 335.911 77.4935 336.75C77.5733 337.113 77.6251 337.384 77.6479 337.561C77.6707 337.739 77.6469 337.965 77.5795 338.237C77.5122 338.51 77.335 338.733 77.05 338.907C76.766 339.082 76.3598 339.234 75.8323 339.365C74.9939 339.572 74.3711 339.559 73.9607 339.326C73.6094 339.126 73.3234 338.606 73.0996 337.767C73.0249 337.483 72.9762 337.271 72.9555 337.132C72.9348 336.993 72.9337 336.802 72.9514 336.559C72.969 336.315 73.0374 336.122 73.1576 335.981C73.2757 335.84 73.4685 335.692 73.7348 335.539C74.0001 335.386 74.3421 335.258 74.7608 335.154C75.5981 334.946 76.223 334.957 76.6323 335.192Z" fill="#FFD14D"/>
<path d="M81.2688 320.18C82.3259 319.918 83.3052 319.891 84.212 320.097C85.1187 320.304 85.8804 320.65 86.4991 321.134C87.1157 321.619 87.6712 322.233 88.1655 322.972C88.6609 323.711 89.0454 324.41 89.3189 325.069C89.5936 325.726 89.8215 326.4 90.005 327.089C90.2008 327.823 90.3438 328.549 90.4361 329.269C90.5283 329.989 90.5366 330.781 90.4609 331.645C90.3843 332.51 90.2008 333.293 89.9086 333.997C89.6153 334.7 89.122 335.346 88.4266 335.932C87.7302 336.52 86.8711 336.939 85.8462 337.193C84.7612 337.463 83.757 337.5 82.8378 337.305C81.9176 337.11 81.1507 336.778 80.5372 336.307C79.9237 335.836 79.3672 335.233 78.8646 334.496C78.362 333.759 77.9775 333.057 77.7081 332.389C77.4397 331.721 77.2075 331.021 77.0117 330.287C76.8324 329.612 76.6976 328.935 76.6075 328.256C76.5173 327.576 76.5028 326.794 76.5661 325.908C76.6282 325.023 76.8034 324.222 77.0915 323.504C77.3795 322.786 77.878 322.12 78.5827 321.507C79.2884 320.891 80.1838 320.45 81.2688 320.18ZM84.6908 333.218C86.2888 332.822 86.6981 331.156 85.9167 328.221L85.8815 328.087C85.0804 325.077 83.8876 323.769 82.3062 324.161C80.7227 324.554 80.3351 326.262 81.1393 329.285C81.9404 332.295 83.1228 333.607 84.6908 333.218Z" fill="#FFD14D"/>
<path d="M95.4198 316.672C96.4747 316.41 97.4561 316.383 98.3629 316.589C99.2697 316.796 100.031 317.142 100.649 317.626C101.266 318.111 101.821 318.725 102.315 319.464C102.811 320.203 103.195 320.903 103.469 321.561C103.743 322.219 103.971 322.892 104.156 323.581C104.351 324.315 104.495 325.042 104.587 325.761C104.679 326.481 104.688 327.273 104.611 328.137C104.535 329.002 104.352 329.785 104.058 330.489C103.766 331.192 103.272 331.838 102.577 332.425C101.88 333.013 101.022 333.432 99.9972 333.686C98.9111 333.956 97.9079 333.993 96.9887 333.798C96.0685 333.604 95.3006 333.271 94.6881 332.8C94.0736 332.33 93.5171 331.726 93.0145 330.989C92.5129 330.252 92.1274 329.55 91.8579 328.882C91.5895 328.214 91.3585 327.514 91.1626 326.78C90.9833 326.105 90.8486 325.428 90.7574 324.749C90.6682 324.069 90.6538 323.287 90.7159 322.401C90.7792 321.516 90.9543 320.715 91.2424 319.997C91.5305 319.279 92.0279 318.613 92.7326 318C93.4383 317.383 94.3347 316.942 95.4198 316.672ZM98.8417 329.71C100.439 329.314 100.848 327.649 100.068 324.713L100.031 324.579C99.2313 321.569 98.0385 320.261 96.4561 320.653C94.8736 321.046 94.485 322.754 95.2902 325.777C96.0903 328.788 97.2737 330.099 98.8417 329.71Z" fill="#FFD14D"/>
<path d="M77.9362 346.374C78.4958 346.975 78.901 347.701 79.1508 348.556C79.4016 349.41 79.4513 350.232 79.3 351.018C79.1477 351.805 78.8565 352.478 78.4243 353.036C77.9922 353.596 77.502 354.066 76.9528 354.45C76.4035 354.836 75.8418 355.105 75.2698 355.261L72.7153 355.959L73.3692 358.187C73.4583 358.49 73.5153 358.72 73.5391 358.876C73.563 359.033 73.5495 359.226 73.4987 359.452C73.4469 359.679 73.3039 359.867 73.0676 360.016C72.8324 360.166 72.4966 360.301 72.0614 360.42C71.7059 360.517 71.4033 360.564 71.1525 360.561C70.9017 360.559 70.7017 360.528 70.5525 360.469C70.4022 360.412 70.2706 360.302 70.1587 360.141C70.0457 359.98 69.9659 359.839 69.9224 359.715C69.8778 359.593 69.8198 359.406 69.7473 359.156L66.5347 348.214C66.4456 347.911 66.3886 347.682 66.3647 347.525C66.3419 347.369 66.3544 347.177 66.4051 346.95C66.457 346.723 66.6 346.534 66.8363 346.385C67.0715 346.235 67.4073 346.101 67.8435 345.982L72.2157 344.787C72.7888 344.631 73.4086 344.579 74.0801 344.63C74.7485 344.682 75.42 344.836 76.0905 345.091C76.7641 345.346 77.3776 345.775 77.9362 346.374ZM75.5496 349.519C75.3838 348.954 75.0594 348.578 74.5775 348.39C74.0956 348.201 73.6438 348.165 73.221 348.281L70.6665 348.979L71.6903 352.469L74.2646 351.765C74.6739 351.654 75.0325 351.399 75.3433 351.001C75.6542 350.605 75.7226 350.111 75.5496 349.519Z" fill="#FFD14D"/>
<path d="M85.3944 353.282C85.6918 353.442 85.9416 353.87 86.1468 354.566L86.1696 354.645C86.2628 354.96 86.3219 355.198 86.3447 355.353C86.3675 355.51 86.354 355.71 86.2991 355.952C86.2452 356.193 86.0949 356.395 85.8473 356.556C85.6006 356.716 85.2441 356.859 84.7819 356.985C84.0461 357.186 83.4948 357.187 83.1279 356.99C82.8171 356.835 82.558 356.407 82.3538 355.71L82.331 355.631C82.2419 355.33 82.1849 355.097 82.159 354.934C82.1331 354.771 82.1445 354.573 82.1932 354.338C82.2419 354.105 82.3932 353.904 82.6471 353.735C82.8979 353.567 83.2565 353.419 83.7197 353.293C84.442 353.094 84.9995 353.091 85.3944 353.282Z" fill="#FFD14D"/>
<path d="M98.1318 337.722C98.5535 337.607 98.9048 337.554 99.1877 337.561C99.4696 337.57 99.6945 337.658 99.8603 337.826C100.028 337.993 100.144 338.153 100.212 338.304C100.279 338.456 100.357 338.684 100.446 338.987L103.658 349.929C103.748 350.231 103.8 350.462 103.816 350.619C103.835 350.778 103.819 350.967 103.773 351.186C103.727 351.404 103.585 351.587 103.351 351.737C103.113 351.887 102.779 352.022 102.342 352.141C101.988 352.238 101.686 352.285 101.434 352.282C101.185 352.28 100.984 352.249 100.834 352.191C100.684 352.133 100.553 352.023 100.44 351.862C100.327 351.701 100.249 351.561 100.204 351.436C100.161 351.314 100.102 351.126 100.029 350.876L98.0903 344.271C97.8685 344.772 97.5618 345.555 97.168 346.622C96.7752 347.687 96.4767 348.454 96.2767 348.921C96.256 348.998 96.2218 349.089 96.1793 349.192C96.1358 349.297 96.0042 349.46 95.7824 349.684C95.5607 349.908 95.2943 350.062 94.9803 350.148C94.6808 350.23 94.3844 350.237 94.0922 350.166C93.7999 350.098 93.5792 350.011 93.4321 349.91L93.2041 349.738C92.8362 349.483 92.0921 348.931 90.9739 348.08C89.8557 347.228 89.2516 346.771 89.1604 346.712L91.1107 353.357C91.1988 353.659 91.2558 353.888 91.2796 354.045C91.3035 354.202 91.289 354.391 91.2371 354.611C91.1822 354.832 91.0392 355.015 90.8029 355.166C90.5666 355.315 90.2309 355.451 89.7956 355.57C89.3728 355.685 89.0246 355.737 88.7489 355.727C88.4733 355.716 88.2546 355.632 88.0888 355.471C87.923 355.31 87.808 355.154 87.7417 355.002C87.6743 354.849 87.5945 354.615 87.5023 354.299L84.2897 343.357C84.2006 343.054 84.1446 342.825 84.1208 342.669C84.098 342.512 84.1114 342.323 84.1643 342.103C84.2171 341.883 84.3612 341.697 84.5975 341.547C84.8327 341.398 85.1685 341.263 85.6058 341.144C85.9727 341.043 86.3022 341.001 86.5934 341.013C86.8836 341.027 87.0836 341.067 87.1924 341.136L87.3489 341.222L93.7119 345.829C95.1596 342.239 96.1327 339.864 96.6301 338.705C96.7586 338.289 97.2592 337.96 98.1318 337.722Z" fill="#FFD14D"/>
<path d="M108.013 347.099C108.311 347.259 108.56 347.687 108.766 348.383L108.788 348.462C108.882 348.777 108.94 349.015 108.963 349.17C108.986 349.327 108.973 349.526 108.919 349.768C108.865 350.01 108.714 350.212 108.467 350.372C108.22 350.533 107.864 350.676 107.402 350.802C106.666 351.003 106.115 351.004 105.748 350.807C105.437 350.652 105.178 350.224 104.974 349.527L104.952 349.448C104.863 349.147 104.806 348.914 104.78 348.751C104.754 348.588 104.765 348.39 104.814 348.155C104.864 347.922 105.014 347.72 105.268 347.552C105.519 347.384 105.877 347.236 106.341 347.11C107.061 346.911 107.618 346.909 108.013 347.099Z" fill="#FFD14D"/>
<path d="M61.0679 298.549C60.2533 298.549 59.5186 298.042 59.2709 297.259L59.2564 297.215C59.102 296.728 59.1673 296.197 59.4367 295.757C59.7051 295.318 60.1549 295.006 60.671 294.902L79.051 291.153C80.0677 290.942 81.0615 291.57 81.2832 292.54C81.3941 293.017 81.304 293.506 81.0293 293.918C80.7558 294.33 80.3319 294.612 79.8365 294.715L61.47 298.508C61.3352 298.536 61.2005 298.549 61.0679 298.549ZM59.7518 297.069L59.7652 297.112C59.9715 297.763 60.673 298.158 61.3622 298.019L79.7278 294.226C80.0884 294.152 80.3962 293.946 80.5941 293.647C80.792 293.349 80.8584 292.994 80.7786 292.648C80.6169 291.944 79.8977 291.499 79.1588 291.641L60.7787 295.39C60.3984 295.468 60.0803 295.689 59.8834 296.011C59.6844 296.335 59.6388 296.71 59.7518 297.069Z" fill="#ECECED"/>
<path d="M38.0785 331.056C37.9697 331.056 37.8681 330.989 37.8329 330.884L31.13 311.139C31.1072 311.072 31.1144 310.999 31.1507 310.938C31.1859 310.877 31.2471 310.834 31.3175 310.818L33.6109 310.307C33.7467 310.273 33.8752 310.35 33.9166 310.474L40.4433 330.219C40.4651 330.285 40.4578 330.357 40.4226 330.417C40.3874 330.476 40.3283 330.52 40.2589 330.537L38.1417 331.048C38.121 331.054 38.0992 331.056 38.0785 331.056ZM31.7103 311.243L38.2505 330.508L39.8661 330.118L33.4959 310.846L31.7103 311.243Z" fill="#7A8BFC"/>
<path d="M53.7786 382.712C42.5729 382.712 35.0161 381.355 31.3196 378.68C27.5391 375.946 28.4531 372.385 29.021 370.982C29.2905 370.32 29.8428 369.811 30.5382 369.587L48.1866 363.897C48.3929 363.827 48.6095 363.938 48.6789 364.133C48.7463 364.329 48.6374 364.542 48.4343 364.608L30.7859 370.298C30.3092 370.451 29.9309 370.8 29.7465 371.255C29.1216 372.8 28.5547 375.741 31.7859 378.08C35.3457 380.656 42.7439 381.962 53.7796 381.962C53.9942 381.962 54.1683 382.13 54.1683 382.337C54.1683 382.544 53.9931 382.712 53.7786 382.712Z" fill="#490F37"/>
<path d="M55.529 407.42C49.0749 407.421 40.1325 404.601 36.1396 401.038C32.8534 398.107 32.7322 395.212 32.9519 393.747C33.0793 392.9 33.6866 392.187 34.5354 391.886L54.8782 384.667C55.0813 384.598 55.3031 384.695 55.3767 384.889C55.4513 385.084 55.3487 385.299 55.1466 385.371L34.8038 392.59C34.2224 392.797 33.8069 393.282 33.7198 393.856C33.5229 395.175 33.6421 397.79 36.6671 400.489C41.0424 404.394 52.0771 407.476 58.1447 406.479C63.8019 405.553 64.8755 404.837 64.918 404.807C65.088 404.689 65.3294 404.719 65.459 404.879C65.5875 405.04 65.5647 405.267 65.401 405.395C65.2932 405.48 64.1802 406.251 58.2742 407.219C57.4348 407.356 56.5114 407.42 55.529 407.42Z" fill="#490F37"/>
<path d="M59.1704 426.597C53.2023 426.597 47.0476 425.913 42.9044 423.466C38.6928 420.981 38.2369 417.826 38.3395 416.167C38.3944 415.264 38.9675 414.48 39.8359 414.125L57.3278 406.802C57.5258 406.718 57.7538 406.806 57.8388 406.996C57.9248 407.186 57.8336 407.407 57.6377 407.489L40.1427 414.813C39.5457 415.058 39.153 415.593 39.1146 416.211C39.0234 417.702 39.4452 420.544 43.3096 422.824C49.5306 426.499 60.6005 426.059 68.3864 425.409C68.5947 425.388 68.7884 425.545 68.8071 425.751C68.8257 425.957 68.6662 426.139 68.4527 426.157C65.6578 426.391 62.441 426.597 59.1704 426.597Z" fill="#490F37"/>
<path d="M166.67 383.402L130.863 374.721L80.8252 372.883C80.2749 372.863 79.8076 373.257 79.7537 373.786C79.4397 376.841 79.364 386.533 90.292 390.381C103.345 394.977 134.39 402.296 134.39 402.296C134.39 402.296 144.092 427.828 159.791 431.913C175.49 435.998 180.782 416.254 180.782 416.254L166.67 383.402Z" fill="#7A8BFC"/>
<g opacity="0.52">
<path d="M166.67 383.402L130.863 374.721L80.8252 372.883C80.2749 372.863 79.8076 373.257 79.7537 373.786C79.4397 376.841 79.364 386.533 90.292 390.381C103.345 394.977 134.39 402.296 134.39 402.296C134.39 402.296 144.092 427.828 159.791 431.913C175.49 435.998 180.782 416.254 180.782 416.254L166.67 383.402Z" fill="#490F37"/>
</g>
<path d="M81.4315 372.891C80.0283 373.849 80.4833 376.011 81.4999 377.349C83.4658 379.936 86.7778 381.267 90.0505 381.828C93.2838 382.382 96.7306 382.275 99.6997 380.92C102.669 379.565 105.064 376.811 105.339 373.653C97.4032 373.348 89.3665 373.197 81.4315 372.891Z" fill="#7A8BFC"/>
<path d="M162.922 433.905C162.861 433.905 162.801 433.891 162.743 433.863C162.633 433.807 151.636 428.275 145.316 422.178C139.311 416.382 134.728 404.335 134.093 402.608C131.572 401.975 106.241 395.603 100.483 393.671C99.0137 393.178 97.4945 392.781 95.8861 392.362C90.9098 391.065 85.7634 389.724 82.1809 385.379C78.9041 381.404 78.989 376.859 79.3321 374.504C79.5082 373.287 80.6067 372.42 81.869 372.455L130.876 374.346L161.555 381.334C161.765 381.382 161.893 381.584 161.844 381.785C161.795 381.986 161.581 382.114 161.377 382.064L130.773 375.085L81.8389 373.204C80.9384 373.177 80.2212 373.774 80.101 374.606C79.7756 376.842 79.6927 381.156 82.7892 384.911C86.2132 389.063 91.2331 390.372 96.0893 391.638C97.6396 392.042 99.2428 392.459 100.737 392.961C106.738 394.975 134.21 401.861 134.486 401.931C134.612 401.963 134.714 402.053 134.756 402.171C134.804 402.305 139.652 415.65 145.866 421.646C152.101 427.663 162.991 433.141 163.1 433.196C163.291 433.292 163.366 433.517 163.266 433.702C163.199 433.831 163.063 433.905 162.922 433.905Z" fill="#490F37"/>
<path d="M136.663 289.887L145.385 279.541L141.446 291.657L152.623 296.004L141.777 297.303L139.126 307.576L135.164 297.505L125.148 299.895L131.515 293.482L126.239 285.685L136.663 289.887Z" fill="#ECECED"/>
<path d="M159.337 358.88L160.503 345.59L164.323 357.742L176.096 355.258L167.893 362.228L171.7 372.156L162.547 365.988L155.667 373.408L157.183 364.649L148.272 361.075L159.337 358.88Z" fill="#ECECED"/>
<path d="M51.993 440.014L60.7156 429.668L56.7766 441.785L67.9543 446.132L57.1082 447.431L54.4573 457.703L50.4955 447.633L40.4795 450.022L46.8456 443.61L41.5697 435.813L51.993 440.014Z" fill="#ECECED"/>
<path d="M20.4953 362.882L21.2653 349.566L25.4447 361.607L37.1385 358.797L29.1475 365.991L33.2482 375.81L23.9161 369.899L17.2589 377.506L18.5139 368.709L9.5 365.384L20.4953 362.882Z" fill="#ECECED"/>
</svg>
