<svg width="381" height="307" viewBox="0 0 381 307" fill="none" xmlns="http://www.w3.org/2000/svg">
<path d="M185.445 306.931C287.864 306.931 370.891 296.992 370.891 284.732C370.891 272.472 287.864 262.533 185.445 262.533C83.0267 262.533 0 272.472 0 284.732C0 296.992 83.0267 306.931 185.445 306.931Z" fill="#DBE6F7"/>
<path d="M139.822 17.996C139.822 18.8722 139.464 19.672 138.883 20.2499C138.308 20.8319 137.509 21.1895 136.632 21.1895H68.3692C66.6159 21.1895 65.1797 19.7533 65.1797 17.996C65.1797 17.1189 65.5373 16.3199 66.1185 15.742C66.6932 15.16 67.4922 14.8024 68.3692 14.8024H71.5953C72.8698 11.8413 75.8122 9.77187 79.2374 9.77187C81.5425 9.77187 83.6274 10.7107 85.1376 12.2249C87.1485 8.81436 90.8574 6.52384 95.1044 6.52384C96.2724 6.52384 97.3957 6.70022 98.4565 7.02129C100.677 2.84503 105.068 0.000976562 110.129 0.000976562C116.206 0.000976562 121.318 4.10408 122.861 9.68733C123.981 9.1273 125.244 8.80705 126.585 8.80705C130.375 8.80705 133.572 11.3373 134.577 14.8032H136.633C138.385 14.8032 139.822 16.2395 139.822 17.996Z" fill="#DBE6F7"/>
<path d="M354.452 38.3975C354.452 39.2746 354.095 40.0736 353.513 40.6515C352.939 41.2334 352.14 41.5911 351.263 41.5911H283.001C281.247 41.5911 279.811 40.1548 279.811 38.3975C279.811 37.5205 280.168 36.7215 280.75 36.1436C281.325 35.5616 282.124 35.204 283.001 35.204H286.227C287.501 32.2429 290.444 30.1726 293.869 30.1726C296.174 30.1726 298.259 31.1114 299.769 32.6257C301.78 29.2151 305.489 26.9246 309.736 26.9246C310.903 26.9246 312.027 27.101 313.088 27.422C315.308 23.2458 319.699 20.4017 324.76 20.4017C330.837 20.4017 335.949 24.5048 337.493 30.0881C338.612 29.5281 339.876 29.2078 341.216 29.2078C345.006 29.2078 348.203 31.7381 349.209 35.204H351.264C353.016 35.2048 354.452 36.641 354.452 38.3975Z" fill="#DBE6F7"/>
<path d="M276.515 17.9958C276.515 18.8728 276.158 19.6718 275.577 20.2497C275.002 20.8317 274.203 21.1894 273.326 21.1894H205.063C203.31 21.1894 201.874 19.7531 201.874 17.9958C201.874 17.1196 202.231 16.3198 202.812 15.7418C203.387 15.1599 204.186 14.8022 205.063 14.8022H208.29C209.564 11.8411 212.507 9.77088 215.932 9.77088C218.238 9.77088 220.322 10.7097 221.832 12.224C223.843 8.81339 227.552 6.52287 231.799 6.52287C232.966 6.52287 234.09 6.69925 235.15 7.02031C237.371 2.84405 241.762 0 246.822 0C252.9 0 258.012 4.10311 259.555 9.68717C260.674 9.12713 261.938 8.80688 263.279 8.80688C267.069 8.80688 270.266 11.3372 271.271 14.803H273.327C275.079 14.803 276.515 16.2393 276.515 17.9958Z" fill="#DBE6F7"/>
<path d="M61.9026 84.781C61.8157 84.8907 61.7262 84.9931 61.6336 85.0842C58.9919 87.7014 54.4133 77.6802 58.6449 67.6516C62.8764 57.6231 59.3902 44.3742 53.7151 43.858C48.0408 43.3419 52.9738 52.1561 45.6593 50.8036C38.3447 49.451 37.2182 29.9653 27.7781 31.0407C19.5166 31.9803 24.8113 46.4127 28.9152 52.4934C32.7875 58.2335 31.6382 64.0704 27.2904 62.7942C22.9443 61.5198 18.5997 67.5533 25.0706 76.9235C31.5414 86.2936 40.3052 95.6199 36.0875 96.6953C31.8698 97.7731 23.0954 88.5614 19.3581 99.4629C17.6878 104.335 28.3032 121.197 51.8651 122.532L61.9026 111.66V84.781Z" fill="#DBE6F7"/>
<path d="M59.1416 111.659C49.1952 85.2598 32.4763 44.8123 32.2731 44.3206C32.1447 44.0109 32.291 43.6541 32.6023 43.5248C32.9136 43.3964 33.2688 43.5451 33.398 43.8556C33.6021 44.3515 50.5054 85.2395 60.4429 111.658L59.1416 111.659Z" fill="#C9CDFD"/>
<path d="M44.3173 72.9935C44.2173 72.9846 44.1189 72.9504 44.0303 72.8903C43.7524 72.7009 43.6808 72.3221 43.8694 72.0441C43.9222 71.9669 49.1251 64.2923 50.6694 58.7578C50.7597 58.4335 51.0962 58.2441 51.4197 58.3351C51.7432 58.4254 51.9334 58.7611 51.8423 59.0854C50.2435 64.8141 45.0943 72.4099 44.8757 72.731C44.7473 72.9195 44.5302 73.013 44.3173 72.9935Z" fill="#C9CDFD"/>
<path d="M46.5559 79.4879C46.5437 79.4871 46.5315 79.4855 46.5193 79.4838C46.1463 79.4278 37.3223 78.0655 31.3424 74.7915C31.0474 74.6297 30.9392 74.2599 31.101 73.9648C31.2627 73.6698 31.6326 73.5617 31.9276 73.7234C37.7157 76.8926 46.6128 78.2671 46.7022 78.2801C47.0347 78.3305 47.2631 78.641 47.2127 78.9734C47.1639 79.2928 46.8745 79.5164 46.5559 79.4879Z" fill="#C9CDFD"/>
<path d="M61.9025 98.2112C59.3357 101.293 56.5908 103.668 56.5444 103.707C56.2892 103.927 56.26 104.311 56.4786 104.566C56.5859 104.691 56.733 104.763 56.885 104.776C57.0435 104.791 57.2069 104.744 57.3369 104.632C57.5076 104.486 59.6364 102.645 61.9025 100.092V98.2112Z" fill="#C9CDFD"/>
<path d="M49.2943 110.02C45.8252 109.704 42.0073 109.04 38.8658 107.702C38.5561 107.571 38.4122 107.213 38.5439 106.903C38.6756 106.594 39.0332 106.45 39.3429 106.582C46.8387 109.772 58.8392 108.965 58.9595 108.956C59.2935 108.931 59.5862 109.185 59.6097 109.52C59.6333 109.856 59.3805 110.147 59.0456 110.17C58.7457 110.193 54.3996 110.485 49.2943 110.02Z" fill="#C9CDFD"/>
<path d="M320.458 226.774C320.545 226.884 320.635 226.985 320.728 227.077C323.369 229.694 327.948 219.673 323.716 209.645C319.485 199.616 322.971 186.367 328.646 185.851C334.32 185.335 329.387 194.149 336.702 192.796C344.016 191.444 345.144 171.958 354.583 173.034C362.845 173.973 357.55 188.406 353.446 194.486C349.574 200.226 350.723 206.063 355.071 204.787C359.417 203.513 363.761 209.546 357.291 218.916C350.82 228.286 342.056 237.613 346.274 238.688C350.491 239.766 359.266 230.555 363.003 241.456C364.674 246.328 361.064 250.512 356.562 253.653H320.458V226.774Z" fill="#DBE6F7"/>
<path d="M323.221 253.652C333.167 227.253 349.886 186.806 350.089 186.313C350.218 186.004 350.071 185.647 349.76 185.518C349.449 185.389 349.094 185.538 348.964 185.849C348.76 186.344 331.857 227.233 321.919 253.652H323.221Z" fill="#C9CDFD"/>
<path d="M338.044 214.986C338.144 214.977 338.243 214.943 338.331 214.883C338.609 214.694 338.681 214.315 338.492 214.037C338.439 213.961 333.237 206.285 331.692 200.751C331.602 200.426 331.265 200.237 330.942 200.328C330.618 200.418 330.428 200.754 330.519 201.078C332.117 206.807 337.267 214.403 337.485 214.723C337.615 214.912 337.831 215.006 338.044 214.986Z" fill="#C9CDFD"/>
<path d="M335.805 221.481C335.818 221.48 335.83 221.478 335.842 221.477C336.215 221.421 345.039 220.058 351.019 216.784C351.314 216.623 351.422 216.253 351.261 215.958C351.099 215.663 350.73 215.555 350.435 215.716C344.647 218.885 335.749 220.26 335.66 220.273C335.328 220.323 335.099 220.634 335.15 220.966C335.198 221.286 335.488 221.509 335.805 221.481Z" fill="#C9CDFD"/>
<path d="M320.458 240.204C323.025 243.286 325.77 245.66 325.817 245.7C326.072 245.92 326.101 246.304 325.882 246.559C325.775 246.685 325.628 246.755 325.476 246.77C325.318 246.785 325.154 246.737 325.024 246.626C324.853 246.48 322.725 244.639 320.458 242.086V240.204Z" fill="#C9CDFD"/>
<path d="M333.067 252.013C336.537 251.697 340.354 251.032 343.496 249.695C343.806 249.564 343.949 249.206 343.818 248.896C343.686 248.587 343.328 248.443 343.019 248.574C335.522 251.765 323.523 250.958 323.402 250.949C323.067 250.924 322.776 251.178 322.752 251.513C322.728 251.848 322.98 252.139 323.316 252.163C323.617 252.186 327.962 252.478 333.067 252.013Z" fill="#C9CDFD"/>
<path d="M358.65 95.7223C362.028 82.093 367.739 69.8105 373.128 75.3165C378.522 80.8274 368.295 101.777 354.175 112.909L350.278 117.844C360.426 109.552 376.249 105.159 380.181 110.388C384.088 115.584 373.291 117.552 363.129 117.705C355.393 117.821 350.356 119.67 347.895 120.86L329.486 144.17C345.595 131.085 370.576 124.177 376.798 132.451C382.998 140.696 365.865 143.818 349.74 144.061C337.555 144.243 329.584 147.137 325.649 149.028L321.979 153.675C321.073 153.165 320.17 152.65 319.271 152.129L341.173 124.398C341.459 121.437 341.421 117.225 340.24 111.914C338.033 101.992 337.446 91.0332 343.406 93.6301C348.579 95.8841 348.84 108.397 345.15 119.363L352.724 109.773C354.56 106.406 357.191 101.605 358.65 95.7223Z" fill="#DBE6F7"/>
<path d="M190.544 32.2729C190.87 18.2348 188.592 4.88259 181.944 8.7768C175.289 12.6743 179.645 35.5762 190.34 50.0306L192.802 55.817C185.192 45.1472 171.082 36.7467 165.913 40.7579C160.776 44.7432 170.676 49.4819 180.441 52.3024C187.873 54.449 192.247 57.5581 194.307 59.3544L205.936 86.6862C193.837 69.8243 171.553 56.5876 163.373 62.9341C155.222 69.2578 170.931 76.7772 186.424 81.2525C198.132 84.6347 205.061 89.523 208.36 92.3825L210.679 97.8324C211.687 97.5788 212.693 97.3187 213.698 97.0529L199.862 64.5361C200.365 61.6035 201.51 57.5508 204.046 52.7373C208.785 43.7459 212.235 33.3272 205.801 34.2643C200.218 35.078 196.674 47.0825 197.35 58.6326L192.565 47.3873C191.68 43.6556 190.404 38.3317 190.544 32.2729Z" fill="#DBE6F7"/>
<path d="M25.312 187.99C21.9339 174.361 16.223 162.078 10.834 167.584C5.43937 173.095 15.6654 194.045 29.7865 205.177L33.684 210.113C23.5351 201.82 7.71282 197.428 3.78041 202.657C-0.126811 207.853 10.6707 209.821 20.8325 209.974C28.5681 210.09 33.606 211.939 36.0664 213.13L54.4759 236.44C38.3666 223.354 13.3855 216.446 7.16335 224.721C0.963179 232.966 18.0966 236.088 34.2213 236.33C46.4062 236.513 54.3775 239.407 58.3124 241.297L61.9831 245.945C62.8885 245.434 63.7916 244.92 64.6906 244.399L42.7884 216.667C42.5022 213.705 42.5396 209.495 43.7215 204.183C45.9283 194.263 46.5159 183.303 40.5555 185.9C35.3828 188.154 35.1219 200.667 38.812 211.633L31.2374 202.042C29.4012 198.674 26.7702 193.873 25.312 187.99Z" fill="#DBE6F7"/>
<path d="M330.433 94.8412V248.361C330.433 254.689 325.303 259.819 318.972 259.819H57.3406C51.0104 259.819 45.8799 254.689 45.8799 248.361V94.8412C45.8799 88.511 51.0096 83.3805 57.3406 83.3805H318.972C325.302 83.3805 330.433 88.5102 330.433 94.8412Z" fill="#3B3E7D"/>
<path d="M330.433 171.598V248.359C330.433 254.688 325.302 259.818 318.973 259.818H57.3395C51.0101 259.818 45.8804 254.688 45.8804 248.359V171.598H330.433Z" fill="#18285D"/>
<path d="M317.792 102.643V240.556C317.792 244.613 314.503 247.905 310.446 247.905H65.8692C63.7006 247.905 61.7498 246.964 60.4054 245.464C59.2317 244.167 58.5205 242.442 58.5205 240.555V102.643C58.5205 98.5858 61.8116 95.2947 65.8692 95.2947H310.446C311.803 95.2947 313.072 95.6629 314.163 96.3059C316.333 97.582 317.792 99.9449 317.792 102.643Z" fill="white"/>
<path d="M317.792 102.643V240.556C317.792 244.613 314.503 247.905 310.446 247.905H65.8692C63.7006 247.905 61.7498 246.964 60.4054 245.464C59.2317 244.167 58.5205 242.442 58.5205 240.555V102.643C58.5205 98.5858 61.8116 95.2947 65.8692 95.2947H310.446C311.803 95.2947 313.072 95.6629 314.163 96.3059C316.333 97.582 317.792 99.9449 317.792 102.643Z" fill="white"/>
<path d="M66.8008 154.048C66.8008 155.148 67.6916 156.039 68.7914 156.039H111.011C112.111 156.039 113.001 155.148 113.001 154.048C113.001 152.949 112.111 152.058 111.011 152.058H68.7914C67.6924 152.058 66.8008 152.949 66.8008 154.048Z" fill="#DBE6F7"/>
<path d="M66.8008 164.208C66.8008 165.308 67.6916 166.198 68.7914 166.198H111.011C112.111 166.198 113.001 165.308 113.001 164.208C113.001 163.108 112.111 162.217 111.011 162.217H68.7914C67.6924 162.217 66.8008 163.108 66.8008 164.208Z" fill="#DBE6F7"/>
<path d="M66.8008 174.094C66.8008 175.043 67.6803 175.812 68.7645 175.812H110.413C111.497 175.812 112.376 175.044 112.376 174.094C112.376 173.146 111.497 172.376 110.413 172.376H68.7645C67.6803 172.376 66.8008 173.146 66.8008 174.094Z" fill="#DBE6F7"/>
<path d="M66.8008 189.278C66.8008 190.378 67.6916 191.269 68.7914 191.269H111.011C112.111 191.269 113.001 190.378 113.001 189.278C113.001 188.179 112.111 187.288 111.011 187.288H68.7914C67.6924 187.288 66.8008 188.179 66.8008 189.278Z" fill="#DBE6F7"/>
<path d="M66.8008 199.438C66.8008 200.538 67.6916 201.428 68.7914 201.428H111.011C112.111 201.428 113.001 200.538 113.001 199.438C113.001 198.338 112.111 197.447 111.011 197.447H68.7914C67.6924 197.447 66.8008 198.338 66.8008 199.438Z" fill="#DBE6F7"/>
<path d="M66.8008 209.596C66.8008 210.696 67.6916 211.587 68.7914 211.587H111.011C112.111 211.587 113.001 210.696 113.001 209.596C113.001 208.497 112.111 207.606 111.011 207.606H68.7914C67.6924 207.606 66.8008 208.497 66.8008 209.596Z" fill="#DBE6F7"/>
<path d="M263.021 154.048C263.021 155.148 263.912 156.039 265.012 156.039H307.231C308.331 156.039 309.222 155.148 309.222 154.048C309.222 152.949 308.331 152.058 307.231 152.058H265.012C263.913 152.058 263.021 152.949 263.021 154.048Z" fill="#DBE6F7"/>
<path d="M263.021 164.208C263.021 165.308 263.912 166.198 265.012 166.198H307.231C308.331 166.198 309.222 165.308 309.222 164.208C309.222 163.108 308.331 162.217 307.231 162.217H265.012C263.913 162.217 263.021 163.108 263.021 164.208Z" fill="#DBE6F7"/>
<path d="M263.021 174.094C263.021 175.043 263.901 175.812 264.985 175.812H306.633C307.718 175.812 308.597 175.044 308.597 174.094C308.597 173.146 307.718 172.376 306.633 172.376H264.985C263.901 172.376 263.021 173.146 263.021 174.094Z" fill="#DBE6F7"/>
<path d="M263.021 189.278C263.021 190.378 263.912 191.269 265.012 191.269H307.231C308.331 191.269 309.222 190.378 309.222 189.278C309.222 188.179 308.331 187.288 307.231 187.288H265.012C263.913 187.288 263.021 188.179 263.021 189.278Z" fill="#DBE6F7"/>
<path d="M263.021 199.438C263.021 200.538 263.912 201.428 265.012 201.428H307.231C308.331 201.428 309.222 200.538 309.222 199.438C309.222 198.338 308.331 197.447 307.231 197.447H265.012C263.913 197.447 263.021 198.338 263.021 199.438Z" fill="#DBE6F7"/>
<path d="M263.021 209.596C263.021 210.696 263.912 211.587 265.012 211.587H307.231C308.331 211.587 309.222 210.696 309.222 209.596C309.222 208.497 308.331 207.606 307.231 207.606H265.012C263.913 207.606 263.021 208.497 263.021 209.596Z" fill="#DBE6F7"/>
<path d="M317.792 102.643V110.312H58.5205V102.643C58.5205 98.5858 61.8116 95.2947 65.8692 95.2947H310.446C311.803 95.2947 313.072 95.6629 314.163 96.3059C316.333 97.582 317.792 99.9449 317.792 102.643Z" fill="#DBE6F7"/>
<path d="M316.466 98.4395H59.8462C61.1711 96.5383 63.3746 95.2955 65.87 95.2955H310.445C312.94 95.2955 315.144 96.5383 316.466 98.4395Z" fill="#1E1E1F"/>
<path d="M290.887 103.587C290.887 105.005 289.736 106.156 288.318 106.156C286.899 106.156 285.75 105.005 285.75 103.587C285.75 102.169 286.9 101.018 288.318 101.018C289.736 101.018 290.887 102.168 290.887 103.587Z" fill="#7A8BFC"/>
<path d="M299.212 103.587C299.212 105.006 298.061 106.156 296.643 106.156C295.224 106.156 294.074 105.006 294.074 103.587C294.074 102.169 295.224 101.018 296.643 101.018C298.061 101.018 299.212 102.168 299.212 103.587Z" fill="#3B3E7D"/>
<path d="M307.135 103.587C307.135 105.006 305.985 106.156 304.567 106.156C303.148 106.156 301.998 105.006 301.998 103.587C301.998 102.169 303.148 101.018 304.567 101.018C305.985 101.018 307.135 102.168 307.135 103.587Z" fill="#3252F6"/>
<path d="M256.499 147.139V240.428H121.377V147.139H127.591L127.535 147.087L127.602 147.139H256.499Z" fill="#DBE6F7"/>
<path d="M256.498 143.346H121.445V236.636H256.498V143.346Z" fill="#1D38C8"/>
<path d="M256.498 139.931H121.445V233.221H256.498V139.931Z" fill="#3252F6"/>
<g opacity="0.5">
<path d="M130.728 171.388V211.959C130.728 213.309 129.634 214.403 128.284 214.403C126.934 214.403 125.84 213.309 125.84 211.959V171.388C125.84 170.038 126.934 168.944 128.284 168.944C129.633 168.944 130.728 170.038 130.728 171.388Z" fill="#3252F6"/>
</g>
<g opacity="0.5">
<path d="M130.728 158.973V163.079C130.728 164.429 129.634 165.523 128.284 165.523C126.934 165.523 125.84 164.429 125.84 163.079V158.973C125.84 157.623 126.934 156.528 128.284 156.528C129.634 156.528 130.728 157.623 130.728 158.973Z" fill="#3252F6"/>
</g>
<path d="M175.961 188.21L125.357 233.22H121.445V230.842L173.052 184.941L175.961 188.21Z" fill="#1D38C8"/>
<path d="M256.498 231.158V233.22H252.233L201.628 188.21L204.537 184.941L256.498 231.158Z" fill="#1D38C8"/>
<path d="M256.495 139.93L236.035 158.126L193.419 196.027C190.882 198.286 187.056 198.286 184.517 196.027L141.909 158.132L121.442 139.93H256.495Z" fill="#1D38C8"/>
<path d="M236.035 125.025V158.126L223.05 169.673L218.575 173.654L211.629 179.832L207.153 183.813L200.207 189.99L195.732 193.972L193.42 196.027C190.882 198.286 187.056 198.286 184.517 196.027L182.205 193.972L177.73 189.99L170.784 183.813L166.308 179.832L159.361 173.654L154.886 169.673L141.909 158.132V125.025C141.909 122.044 144.325 119.627 147.307 119.627H230.638C233.619 119.627 236.035 122.044 236.035 125.025Z" fill="#DBE6F7"/>
<path d="M176.006 132.516H153.201C152.208 132.516 151.402 131.711 151.402 130.717V130.333C151.402 129.34 152.208 128.534 153.201 128.534H176.006C176.999 128.534 177.804 129.34 177.804 130.333V130.717C177.805 131.711 177 132.516 176.006 132.516Z" fill="#C9CDFD"/>
<path d="M227.57 143.177H153.394C152.294 143.177 151.403 142.286 151.403 141.186C151.403 140.087 152.294 139.196 153.394 139.196H227.57C228.67 139.196 229.561 140.087 229.561 141.186C229.561 142.286 228.67 143.177 227.57 143.177Z" fill="#C9CDFD"/>
<path d="M227.57 153.336H153.394C152.294 153.336 151.403 152.446 151.403 151.346C151.403 150.246 152.294 149.355 153.394 149.355H227.57C228.67 149.355 229.561 150.246 229.561 151.346C229.561 152.445 228.67 153.336 227.57 153.336Z" fill="#C9CDFD"/>
<path d="M227.57 163.495H153.394C152.294 163.495 151.403 162.604 151.403 161.504C151.403 160.405 152.294 159.514 153.394 159.514H227.57C228.67 159.514 229.561 160.405 229.561 161.504C229.561 162.604 228.67 163.495 227.57 163.495Z" fill="#C9CDFD"/>
<path d="M223.051 169.674L218.574 173.655H159.361L154.885 169.674H223.051Z" fill="#C9CDFD"/>
<path d="M211.628 179.832L207.153 183.813H170.783L166.308 179.832H211.628Z" fill="#C9CDFD"/>
<path d="M200.206 189.991L195.731 193.972H182.205L177.729 189.991H200.206Z" fill="#C9CDFD"/>
<path d="M235.089 130.273H234.36C227.902 130.273 222.666 125.037 222.666 118.579V117.85C222.666 111.391 227.902 106.155 234.36 106.155H235.089C241.548 106.155 246.784 111.391 246.784 117.85V118.579C246.784 125.038 241.548 130.273 235.089 130.273Z" fill="#3252F6"/>
<path d="M237.222 130.273H236.493C230.034 130.273 224.798 125.037 224.798 118.579V117.85C224.798 111.391 230.034 106.155 236.493 106.155H237.222C243.68 106.155 248.917 111.391 248.917 117.85V118.579C248.917 125.038 243.68 130.273 237.222 130.273Z" fill="#7A8BFC"/>
<path d="M235.398 122.53L234.314 112.125H240.817L239.733 122.53H235.398ZM237.565 129.226C236.634 129.226 235.871 128.945 235.277 128.383C234.683 127.805 234.386 127.123 234.386 126.336C234.386 125.533 234.683 124.859 235.277 124.313C235.871 123.767 236.634 123.494 237.565 123.494C238.513 123.494 239.276 123.767 239.854 124.313C240.448 124.859 240.745 125.533 240.745 126.336C240.745 127.123 240.448 127.805 239.854 128.383C239.276 128.945 238.513 129.226 237.565 129.226Z" fill="white"/>
<path d="M357.013 253.684V254.666C357.013 259.549 355.446 264.065 352.787 267.738C348.732 273.347 342.132 276.997 334.681 276.997H41.632C34.1801 276.997 27.5808 273.347 23.5256 267.738C20.8661 264.065 19.2998 259.549 19.2998 254.666V253.684H357.013Z" fill="#18285D"/>
<path d="M150.306 253.684V253.908C150.306 255.677 151.49 257.11 152.951 257.11H221.893C223.354 257.11 224.538 255.676 224.538 253.908V253.684H150.306Z" fill="white"/>
<path d="M352.787 267.738C348.732 273.347 342.133 276.997 334.681 276.997H41.6322C34.1803 276.997 27.581 273.347 23.5259 267.738H352.787Z" fill="#1E1E1F"/>
<path d="M44.9637 239.27L42.0059 245.6L48.2597 245.698L50.6721 239.937L44.9637 239.27Z" fill="#FAB083"/>
<path d="M43.9744 245.204C43.9744 245.204 42.6901 243.479 41.67 243.553C40.65 243.627 32.7811 249.883 30.0849 250.4C27.3888 250.917 27.6392 253.663 28.7674 253.663C32.017 253.663 49.9128 253.533 49.9128 253.533C49.9128 253.533 50.4899 247.279 49.8031 245.366C49.1163 243.454 46.0828 245.657 43.9744 245.204Z" fill="#7A8BFC"/>
<path d="M39.6248 249.57C39.7199 249.599 39.8272 249.59 39.9199 249.537C40.1011 249.434 40.1637 249.203 40.0613 249.021C40.0272 248.96 39.2038 247.531 38.0951 246.972C36.6206 246.228 35.4713 247.061 35.4225 247.097C35.2551 247.221 35.2201 247.458 35.3445 247.626C35.4689 247.793 35.7054 247.828 35.8728 247.704C35.9037 247.681 36.7043 247.119 37.7545 247.648C38.6576 248.103 39.3972 249.383 39.4045 249.396C39.4549 249.484 39.5354 249.543 39.6248 249.57Z" fill="white"/>
<path d="M40.7508 248.507C40.8459 248.535 40.9524 248.526 41.0458 248.474C41.2271 248.37 41.2905 248.139 41.1873 247.958C41.1523 247.897 40.3297 246.468 39.2211 245.909C37.7458 245.164 36.5973 245.998 36.5485 246.033C36.3811 246.158 36.3461 246.394 36.4705 246.562C36.594 246.729 36.8314 246.764 36.9988 246.64C37.0305 246.618 37.8311 246.055 38.8805 246.584C39.7876 247.041 40.5232 248.319 40.5297 248.332C40.5809 248.42 40.6606 248.48 40.7508 248.507Z" fill="white"/>
<path d="M38.0989 250.433C38.1948 250.462 38.3013 250.453 38.394 250.4C38.5752 250.297 38.6386 250.066 38.5354 249.885C38.5005 249.824 37.6779 248.394 36.5692 247.836C35.0939 247.09 33.9454 247.924 33.8967 247.96C33.7292 248.084 33.6943 248.321 33.8186 248.488C33.943 248.656 34.1795 248.691 34.347 248.566C34.3787 248.543 35.1793 247.982 36.2286 248.51C37.1357 248.967 37.8713 250.246 37.8778 250.259C37.929 250.346 38.0095 250.406 38.0989 250.433Z" fill="white"/>
<path d="M43.1816 241.334L45.9525 242.238L47.4928 242.329L50.1402 242.485C53.6377 239.719 63.0721 231.395 64.9107 226.486C64.9107 226.486 73.7184 250.45 90.5023 250.45C91.5915 250.45 92.045 240.668 89.3091 237.748C89.3091 237.748 73.8387 208.916 63.8101 211.976C59.3185 213.346 54.7749 219.884 43.1816 241.334Z" fill="#18285D"/>
<path d="M45.9526 242.238L47.4929 242.329C57.7881 234.534 62.5577 227.932 64.7531 223.704C64.8287 223.557 64.9523 223.51 65.0352 223.511C65.1067 223.514 65.1587 223.553 65.192 223.636C70.1218 235.241 76.0383 242.206 80.1333 246.007C84.5964 250.149 87.8615 251.514 87.9965 251.571L88.185 251.11L88.3736 250.651C88.3419 250.637 85.1028 249.276 80.7608 245.234C76.7503 241.503 70.9525 234.659 66.1056 223.246C65.9211 222.807 65.5334 222.535 65.0726 222.517C64.5759 222.497 64.111 222.783 63.8704 223.245C61.6571 227.509 56.7526 234.247 45.9526 242.238Z" fill="#1E1E1F"/>
<path d="M52.916 240.597C52.4755 241.421 51.7188 242.584 50.9953 243.146C50.9953 243.146 45.0667 242.872 42.1836 241.424L43.4768 238.41C43.4768 238.41 48.196 240.132 52.916 240.597Z" fill="#3B3E7D"/>
<path d="M90.0823 188.727C90.0823 188.727 78.5931 202.442 73.7674 204.695C71.6492 205.684 69.5571 206.033 68.0119 206.088C67.4933 206.108 66.144 205.998 66.0701 205.997C66.0636 205.997 66.0579 205.998 66.0579 205.998C60.3251 205.288 53.5868 203.562 45.1562 200.129L46.4129 196.224C46.4129 196.224 51.4783 197.3 57.6858 197.743C59.9747 197.904 65.2548 198.146 67.2072 198.462C67.6908 198.245 68.1671 198.01 68.6313 197.755C77.1984 193.131 82.8523 183.716 82.8523 183.716C85.5639 184.734 88.677 186.636 90.0823 188.727Z" fill="#3252F6"/>
<path d="M46.6264 195.913C46.6264 195.913 45.4527 192.948 43.8555 192.102C42.2584 191.256 37.7131 188.276 36.7434 189.168C35.7737 190.06 35.9736 194.341 40.0483 197.92C42.6436 200.199 45.2593 200.103 45.2593 200.103L46.6264 195.913Z" fill="#FAB083"/>
<path d="M36.4515 191.892L43.1605 198.159C43.4124 198.397 43.8676 198.464 44.1789 198.314L48.291 196.326C48.4186 196.263 48.5023 196.174 48.5381 196.073L48.5478 196.04L48.7494 195.353L47.6586 194.94L37.1033 190.931L36.5311 190.715L36.3165 191.441L36.3003 191.492C36.297 191.497 36.2962 191.503 36.2987 191.51C36.2735 191.636 36.3255 191.775 36.4515 191.892Z" fill="#18285D"/>
<path d="M44.3839 197.617L48.4976 195.628C48.8081 195.478 48.8552 195.166 48.6041 194.932L41.8942 188.664C41.6431 188.429 41.1879 188.36 40.8774 188.51L36.7637 190.499C36.4532 190.65 36.4061 190.961 36.6581 191.196L43.3671 197.463C43.619 197.698 44.0742 197.767 44.3839 197.617Z" fill="#3B3E7D"/>
<path d="M43.8848 196.494L47.0719 194.953C47.3824 194.803 47.4295 194.491 47.1783 194.256L41.96 189.382C41.7089 189.147 41.2529 189.078 40.9432 189.228L37.7562 190.769C37.4465 190.919 37.3985 191.231 37.6505 191.466L42.8688 196.34C43.1199 196.575 43.5751 196.644 43.8848 196.494Z" fill="#58619B"/>
<path d="M43.9705 190.603C43.9705 190.603 43.0146 190.751 42.9171 191.573C42.8195 192.395 43.7087 192.068 44.2802 191.888C44.8516 191.707 45.3669 191.888 45.4449 191.981C45.6953 192.274 45.6522 190.359 43.9705 190.603Z" fill="#FAB083"/>
<path d="M39.697 195.064C39.697 195.064 38.1974 192.6 37.048 191.254C36.2824 190.356 35.8914 191.658 36.4157 192.565C36.9399 193.472 37.9738 195.319 39.697 195.064Z" fill="#FAB083"/>
<path d="M98.1473 174.52C98.1473 174.52 105.388 174.557 108.689 177.541C111.99 180.524 108.839 186.587 105.259 187.364C101.678 188.141 90.4979 186.816 89.3355 184.9C88.1724 182.984 88.9096 174.667 98.1473 174.52Z" fill="#7A8BFC"/>
<path d="M109.566 239.498L113.086 216.803L112.323 185.494L103.902 182.647L103.45 182.494L101.56 181.855L100.06 181.349L91.1689 182.574L89.7221 182.772L89.2117 182.843L82.8514 183.718C82.7912 203.84 84.7233 208.186 81.0038 224.555C79.1343 230.726 86.001 252.591 109.566 239.498Z" fill="#7A8BFC"/>
<path d="M97.5439 187.452C103.914 187.428 105.392 181.814 105.407 181.757C105.439 181.631 105.362 181.504 105.236 181.472C105.111 181.44 104.983 181.517 104.951 181.643C104.896 181.861 103.538 186.959 97.5439 186.981C97.5105 186.981 97.478 186.981 97.4447 186.981C97.3187 186.988 97.209 187.085 97.209 187.215C97.2082 187.345 97.313 187.45 97.4431 187.451C97.4764 187.452 97.5114 187.452 97.5439 187.452Z" fill="#3252F6"/>
<path d="M91.5586 186.573C91.6862 186.572 91.7911 186.469 91.7927 186.341C91.7943 186.212 91.6911 186.104 91.5619 186.102C91.4781 186.1 89.6257 186.026 89.147 183.522C89.1226 183.395 89.0007 183.311 88.8722 183.335C88.7446 183.36 88.6609 183.483 88.6861 183.61C89.2396 186.504 91.531 186.572 91.5545 186.572C91.5545 186.572 91.557 186.573 91.5586 186.573Z" fill="#3252F6"/>
<path d="M101.844 218.336C101.844 218.336 102.879 226.234 100.772 230.099C100.772 230.099 90.2956 230.833 82.6787 227.838C82.6787 227.838 84.5815 222.324 84.6108 216.942L101.844 218.336Z" fill="#3252F6"/>
<path d="M96.2496 209.977C96.2561 209.977 96.2634 209.977 96.2699 209.976C96.3991 209.965 96.495 209.85 96.4828 209.721C95.9561 203.865 98.1499 189.083 98.1719 188.934C98.1914 188.805 98.1028 188.686 97.9743 188.666C97.8459 188.647 97.7264 188.735 97.7069 188.864C97.6842 189.013 95.4823 203.851 96.0146 209.762C96.026 209.885 96.1284 209.978 96.2496 209.977Z" fill="white"/>
<path d="M88.5007 208.83C88.5072 208.83 88.5145 208.83 88.521 208.829C88.6503 208.818 88.7454 208.703 88.734 208.574C88.2073 202.718 90.475 187.82 90.4978 187.671C90.5173 187.542 90.4295 187.423 90.3011 187.403C90.1727 187.383 90.0532 187.472 90.0329 187.6C90.0101 187.75 87.7334 202.705 88.265 208.617C88.2772 208.739 88.3804 208.831 88.5007 208.83Z" fill="white"/>
<path d="M118.668 247.423C118.668 247.423 116.06 250.96 116.274 252.79C116.49 254.62 118.852 258.069 120.74 258.235C122.628 258.402 118.57 253.803 119.528 253.952C120.687 254.132 128.51 260.55 130.162 260.55C131.813 260.55 128.219 257.567 126.82 256.813C126.82 256.813 130.521 258.469 131.383 259.33C132.245 260.192 132.87 258.344 128.563 255.724C128.563 255.724 132.514 257.966 132.783 258.002C133.661 258.119 131.155 255.18 128.996 254.117C128.996 254.117 132.162 255.659 132.484 255.665C132.93 255.675 131.975 254.639 129.624 253.336C127.51 252.164 124.045 246.783 124.045 246.783L118.668 247.423Z" fill="#FAB083"/>
<path d="M112.323 185.494C112.323 185.494 121.103 202.358 123.103 219.998L124.045 246.783C124.045 246.783 123.142 248.691 118.668 247.423L114.34 220.641L111.024 208.387C111.024 208.387 109.516 193.307 112.323 185.494Z" fill="#7A8BFC"/>
<path d="M85.3557 167.26C86.2888 172.536 91.3218 176.058 96.5978 175.125C101.874 174.193 105.395 169.159 104.463 163.883C103.529 158.607 98.4965 155.086 93.2205 156.018C87.9445 156.95 84.4234 161.983 85.3557 167.26Z" fill="#1E1E1F"/>
<path d="M85.2097 165.519C85.2097 165.519 82.3721 165.25 82.2648 162.561C82.1738 160.272 85.0552 161.257 84.5155 159.552C83.9758 157.846 83.1825 156.349 85.3649 155.512C87.2742 154.781 87.5465 156.129 89.794 153.705C92.4494 150.842 95.7552 155.801 98.5204 155.479C102.598 155.004 103.512 157.197 104.231 158.952C104.951 160.708 103.624 162.264 103.624 162.264L85.2097 165.519Z" fill="#1E1E1F"/>
<path d="M87.4333 169.65C87.4333 169.65 85.563 167.9 84.7332 169.767C83.9025 171.634 86.3645 176.281 88.907 174.591L87.4333 169.65Z" fill="#FC8664"/>
<path d="M88.0366 173.174C87.935 173.192 87.8293 173.142 87.7822 173.044C87.0864 171.598 85.4014 171.26 85.3844 171.257C85.2559 171.232 85.1722 171.109 85.1966 170.98C85.221 170.852 85.3445 170.768 85.4721 170.792C85.551 170.806 87.4075 171.174 88.2089 172.838C88.265 172.956 88.2162 173.098 88.0984 173.154C88.078 173.164 88.0577 173.171 88.0366 173.174Z" fill="#FD664D"/>
<path d="M86.3104 172.689C86.2673 172.696 86.2218 172.692 86.1779 172.674C86.0576 172.624 86.0007 172.485 86.0511 172.365C86.0592 172.344 86.2632 171.87 86.8005 171.505C86.9078 171.432 87.0557 171.461 87.1289 171.569C87.202 171.677 87.1744 171.824 87.0655 171.897C86.6501 172.178 86.4884 172.544 86.4876 172.547C86.455 172.625 86.3868 172.676 86.3104 172.689Z" fill="#FD664D"/>
<path d="M100.04 176.933L100.907 181.834C100.907 181.834 99.2736 184.35 97.3269 184.869C95.3826 185.39 93.7667 183.257 93.7667 183.257L92.9336 178.544L100.04 176.933Z" fill="#FAB083"/>
<path d="M100.04 176.933L100.424 179.108C99.3586 180.814 97.0681 181.598 93.4917 181.7L92.9341 178.545L100.04 176.933Z" fill="#FC8664"/>
<path d="M102.982 163.434C103.227 165.355 103.467 167.768 103.44 169.737C103.434 170.228 103.41 170.693 103.366 171.114C102.973 174.907 101.489 181.556 93.8107 180.253C90.4196 179.678 88.3136 176.386 87.0163 172.89C86.136 170.515 85.6297 168.048 85.3492 166.271C85.0639 164.456 85.7589 162.629 87.1756 161.458C91.0113 158.288 95.6688 158.394 98.8314 159.009C101.026 159.434 102.699 161.22 102.982 163.434Z" fill="#FAB083"/>
<path d="M91.1769 169.647C91.2695 170.171 91.0745 170.642 90.742 170.701C90.4096 170.759 90.0649 170.383 89.9723 169.86C89.8796 169.338 90.0747 168.865 90.4071 168.807C90.7396 168.747 91.0842 169.124 91.1769 169.647Z" fill="#1E1E1F"/>
<path d="M98.2291 168.4C98.3218 168.924 98.1267 169.395 97.7942 169.454C97.4618 169.512 97.1172 169.136 97.0245 168.613C96.9319 168.09 97.1269 167.618 97.4594 167.56C97.7918 167.501 98.1364 167.878 98.2291 168.4Z" fill="#1E1E1F"/>
<path d="M88.102 167.191C88.102 167.191 90.434 165.757 92.5115 166.25L92.5091 167.174C92.5091 167.174 90.3364 167.077 88.4247 168.202C88.2223 167.812 88.0134 167.644 88.102 167.191Z" fill="#1E1E1F"/>
<path d="M99.5727 165.163C99.5727 165.163 96.8912 164.615 95.1079 165.79L95.4274 166.658C95.4274 166.658 97.435 165.821 99.6166 166.223C99.6719 165.788 99.8109 165.56 99.5727 165.163Z" fill="#1E1E1F"/>
<path d="M95.1721 172.785C95.5647 172.715 95.9272 172.494 95.9833 172.458C96.093 172.388 96.1264 172.243 96.0565 172.132C95.9874 172.022 95.8411 171.988 95.7305 172.058C95.5355 172.181 95.0543 172.404 94.812 172.312C94.7649 172.294 94.6991 172.254 94.6592 172.115C94.4316 171.317 94.1724 168.552 94.1699 168.525C94.1577 168.395 94.0423 168.3 93.9131 168.312C93.7822 168.323 93.6871 168.439 93.6993 168.569C93.7099 168.684 93.9651 171.405 94.2049 172.245C94.2951 172.561 94.4934 172.696 94.6438 172.754C94.8096 172.816 94.9941 172.816 95.1721 172.785Z" fill="#FC8664"/>
<path d="M92.4951 174.727C92.8544 175.65 93.7981 177.3 95.9293 176.923C98.0646 176.546 98.3791 174.83 98.3889 173.685L92.4951 174.727Z" fill="white"/>
<path d="M96.1146 178.144C96.7169 178.037 97.1737 177.641 97.1932 177.625C97.2916 177.539 97.3013 177.389 97.2152 177.292C97.129 177.194 96.9795 177.184 96.8819 177.27C96.8787 177.273 96.5023 177.596 96.0325 177.679C95.6017 177.755 95.1457 177.58 95.1409 177.579C95.0198 177.531 94.8824 177.589 94.8336 177.711C94.7857 177.832 94.8442 177.97 94.9661 178.019C94.9897 178.027 95.5457 178.244 96.1146 178.144Z" fill="#FC8664"/>
<path d="M87.469 171.244C87.1236 170.315 86.7302 169.107 86.7448 168.449C86.7732 167.285 87.5869 166.459 87.0845 165.43C86.5822 164.397 87.5218 163.029 88.3322 162.687C89.1402 162.342 91.186 162.414 92.9628 161.15C94.6592 159.942 97.9901 160.003 98.7257 161.099C99.615 162.426 98.7753 162.715 100.783 163.965C101.583 164.463 101.049 166.219 101.117 167.288C101.15 167.779 101.184 168.016 101.294 168.53L101.348 168.792L103.421 168.426C103.363 166.76 103.177 164.945 102.983 163.434C102.7 161.22 101.026 159.436 98.8314 159.009C95.6679 158.394 91.0121 158.286 87.1748 161.458C85.7596 162.629 85.0639 164.455 85.35 166.27C85.5719 167.679 85.9368 169.525 86.518 171.414L87.469 171.244Z" fill="#1E1E1F"/>
<path d="M102.66 169.483C102.558 168.942 102.5 168.392 102.501 167.842C102.501 167.089 102.596 166.389 103.289 165.952C103.848 165.601 104.489 165.482 105.065 166.08C106.485 167.549 106.15 172.963 103.182 172.247L102.66 169.483Z" fill="#FAB083"/>
<path d="M103.448 170.64C103.544 170.603 103.608 170.505 103.598 170.397C103.44 168.799 104.704 167.635 104.716 167.623C104.813 167.536 104.82 167.386 104.733 167.289C104.646 167.193 104.497 167.184 104.4 167.272C104.341 167.326 102.946 168.604 103.127 170.444C103.14 170.574 103.256 170.668 103.386 170.656C103.408 170.653 103.429 170.648 103.448 170.64Z" fill="#FC8664"/>
<path d="M104.671 169.328C104.712 169.312 104.749 169.285 104.777 169.247C104.853 169.141 104.829 168.993 104.724 168.917C104.706 168.904 104.286 168.604 103.637 168.573C103.507 168.566 103.396 168.667 103.39 168.797C103.383 168.927 103.484 169.038 103.614 169.045C104.116 169.069 104.443 169.297 104.447 169.299C104.513 169.348 104.599 169.356 104.671 169.328Z" fill="#FC8664"/>
<path d="M110.155 244.574C110.002 245.267 109.735 245.976 109.327 246.681C108.099 248.802 105.581 250.918 100.906 252.617C91.2143 256.138 72.6829 254.484 72.6829 254.484C72.9072 261.714 55.6787 286.068 55.6787 286.068L54.8326 285.521L54.036 285.006L50.7148 282.858C50.7148 282.858 62.0951 241.95 69.8331 240.779C97.2088 236.636 109.565 239.498 109.565 239.498C110.159 240.865 110.581 242.663 110.155 244.574Z" fill="#3B3E7D"/>
<path d="M110.155 244.574C110.002 245.267 109.735 245.976 109.327 246.681C105.338 249.908 98.2363 251.779 88.1639 252.257C80.7249 252.608 73.9534 252.046 72.1635 251.876C70.3948 264.325 57.5336 281.936 54.8326 285.522C54.5766 285.862 54.4132 286.073 54.3571 286.146C54.2653 286.268 54.1247 286.331 53.984 286.331C53.8833 286.331 53.7808 286.297 53.6947 286.23C53.489 286.073 53.4516 285.775 53.611 285.57C53.6256 285.551 53.7768 285.356 54.0361 285.006C56.5948 281.595 69.8186 263.441 71.2873 251.306C71.3166 251.049 71.549 250.866 71.8051 250.893C72.1091 250.927 102.075 254.061 110.155 244.574Z" fill="#18285D"/>
<path d="M51.3564 282.857L47.3062 287.597L52.1432 290.494L55.679 286.067L51.3564 282.857Z" fill="#FAB083"/>
<path d="M56.8852 285.97C56.2894 287.363 55.874 287.812 54.9312 288.499C54.9312 288.499 51.8839 287.102 48.7529 284.372L50.7143 281.723C50.7143 281.723 53.0316 283.207 56.8852 285.97Z" fill="#58619B"/>
<path d="M48.6799 287.923C48.6799 287.923 48.4312 285.787 47.511 285.34C46.5909 284.894 36.6469 286.371 34.054 285.469C31.4611 284.567 30.3037 287.069 31.2799 287.634C34.093 289.261 49.6512 298.105 49.6512 298.105C49.6512 298.105 53.2804 292.979 53.6438 290.979C54.0087 288.98 50.2787 289.37 48.6799 287.923Z" fill="#7A8BFC"/>
<path d="M42.7291 289.526C42.7974 289.598 42.8941 289.644 43.0014 289.644C43.2103 289.645 43.3794 289.478 43.3818 289.269C43.3826 289.199 43.3851 287.549 42.7047 286.511C41.8009 285.128 40.3882 285.275 40.3289 285.282C40.1216 285.306 39.9729 285.493 39.9972 285.701C40.0208 285.908 40.2086 286.057 40.4158 286.032C40.454 286.028 41.4286 285.942 42.0732 286.926C42.6275 287.772 42.6267 289.25 42.6267 289.265C42.6259 289.366 42.6649 289.457 42.7291 289.526Z" fill="white"/>
<path d="M44.2361 289.168C44.3044 289.24 44.4011 289.286 44.5084 289.287C44.7173 289.288 44.8872 289.12 44.8888 288.911C44.8896 288.841 44.8921 287.191 44.2126 286.153C43.3079 284.77 41.896 284.917 41.8367 284.924C41.6294 284.947 41.4807 285.135 41.5051 285.342C41.5286 285.549 41.7156 285.698 41.9237 285.674C41.9619 285.671 42.9364 285.584 43.581 286.567C44.1378 287.416 44.1337 288.892 44.1337 288.906C44.1329 289.008 44.1719 289.1 44.2361 289.168Z" fill="white"/>
<path d="M40.9757 289.509C41.044 289.582 41.1407 289.627 41.248 289.628C41.4569 289.629 41.6268 289.462 41.6284 289.253C41.6284 289.183 41.6317 287.533 40.9513 286.495C40.0475 285.111 38.6356 285.258 38.5755 285.265C38.3682 285.289 38.2194 285.476 38.2438 285.684C38.2674 285.891 38.4552 286.04 38.6624 286.015C38.7006 286.012 39.676 285.926 40.3198 286.908C40.8757 287.758 40.8733 289.233 40.8725 289.248C40.8725 289.349 40.9115 289.441 40.9757 289.509Z" fill="white"/>
<path d="M272.457 280.543L271.326 285.718C271.326 285.718 274.427 288.018 276.617 286.773L277.757 281.72L272.457 280.543Z" fill="#FAB083"/>
<path d="M272.383 285.408C272.383 285.408 271.516 283.647 270.588 283.544C269.659 283.442 261.56 287.755 259.054 287.773C256.548 287.79 256.155 290.836 257.053 291.342C258.075 291.92 276.12 294.633 276.12 294.633C276.12 294.633 277.888 288.349 277.589 286.518C277.289 284.687 274.201 286.163 272.383 285.408Z" fill="#7A8BFC"/>
<path d="M267.756 288.607C267.836 288.649 267.934 288.658 268.026 288.626C268.206 288.563 268.301 288.367 268.239 288.187C268.217 288.127 267.715 286.707 266.813 286.022C265.613 285.11 264.443 285.668 264.393 285.692C264.222 285.775 264.152 285.982 264.235 286.153C264.319 286.323 264.526 286.394 264.697 286.31C264.729 286.295 265.541 285.923 266.396 286.571C267.131 287.129 267.583 288.401 267.587 288.414C267.618 288.501 267.68 288.568 267.756 288.607Z" fill="white"/>
<path d="M268.943 287.839C269.023 287.881 269.121 287.89 269.213 287.858C269.393 287.795 269.488 287.599 269.426 287.419C269.404 287.359 268.902 285.939 268 285.254C266.799 284.341 265.63 284.899 265.58 284.924C265.409 285.007 265.339 285.214 265.422 285.385C265.506 285.556 265.713 285.627 265.884 285.543C265.916 285.528 266.728 285.156 267.583 285.804C268.322 286.365 268.77 287.634 268.774 287.647C268.805 287.733 268.866 287.799 268.943 287.839Z" fill="white"/>
<path d="M266.244 289.129C266.324 289.171 266.422 289.18 266.514 289.148C266.694 289.085 266.789 288.889 266.726 288.709C266.705 288.649 266.203 287.229 265.301 286.544C264.099 285.63 262.93 286.189 262.881 286.213C262.71 286.296 262.639 286.504 262.723 286.674C262.807 286.845 263.013 286.916 263.185 286.832C263.217 286.817 264.029 286.445 264.884 287.093C265.622 287.654 266.07 288.923 266.075 288.936C266.105 289.023 266.168 289.09 266.244 289.129Z" fill="white"/>
<path d="M298.053 201.49C297.589 203.483 297.126 205.536 296.656 207.639C293.883 220.069 290.882 234.36 286.469 248.665C284.858 261.492 282.049 269.641 278.269 282.556C277.894 282.63 277.349 282.644 276.717 282.607C276.481 282.592 276.232 282.57 275.974 282.534C274.401 282.343 272.517 281.828 271.326 280.93C271.326 280.93 273.62 265.294 276.798 247.693C278.489 238.301 281.49 215.302 282.917 204.167C283.403 200.343 283.704 197.923 283.704 197.923L295.736 200.916L295.935 200.96L296.449 201.093L298.053 201.49Z" fill="#3B3E7D"/>
<path d="M298.052 201.49C297.589 203.483 297.126 205.536 296.655 207.639L282.916 204.168C283.401 200.343 283.703 197.924 283.703 197.924L295.735 200.917L295.933 200.961L296.448 201.094L298.052 201.49Z" fill="#18285D"/>
<path d="M296.447 201.085V201.093L285.048 248.443C285.033 248.569 282.826 264.072 276.715 282.607C276.479 282.592 276.229 282.57 275.972 282.533C282.091 263.999 284.305 248.465 284.327 248.304L295.734 200.916L295.932 200.96L296.447 201.085Z" fill="#18285D"/>
<path d="M306.444 280.106L306.904 286.904L311.868 285.714V280.106H306.444Z" fill="#FAB083"/>
<path d="M308.646 285.498C308.646 285.498 311.282 284.798 312.011 284.813C312.739 284.829 317.613 290.291 319.257 290.615C322.237 291.201 322.235 295.855 320.422 296.084C315.175 296.746 306.204 294.52 306.204 294.52C306.204 294.52 305.384 288.547 305.745 286.674C306.106 284.802 307.18 286.048 308.646 285.498Z" fill="#7A8BFC"/>
<path d="M312.984 290.601C312.891 290.621 312.789 290.605 312.703 290.548C312.536 290.435 312.492 290.209 312.605 290.044C312.642 289.988 313.534 288.675 314.638 288.219C316.106 287.61 317.149 288.493 317.193 288.53C317.345 288.661 317.361 288.891 317.23 289.043C317.099 289.195 316.869 289.211 316.717 289.08C316.688 289.055 315.961 288.459 314.915 288.89C314.016 289.262 313.214 290.438 313.206 290.449C313.153 290.53 313.072 290.582 312.984 290.601Z" fill="white"/>
<path d="M311.98 289.5C311.887 289.52 311.785 289.504 311.7 289.446C311.533 289.334 311.489 289.108 311.602 288.942C311.639 288.886 312.532 287.573 313.635 287.117C315.104 286.509 316.146 287.391 316.19 287.43C316.342 287.56 316.358 287.79 316.227 287.942C316.096 288.094 315.866 288.11 315.715 287.978C315.686 287.955 314.958 287.357 313.913 287.789C313.009 288.163 312.212 289.336 312.204 289.348C312.149 289.428 312.068 289.48 311.98 289.5Z" fill="white"/>
<path d="M314.386 291.538C314.292 291.559 314.191 291.542 314.105 291.485C313.939 291.373 313.895 291.147 314.007 290.98C314.044 290.925 314.937 289.611 316.041 289.155C317.509 288.546 318.551 289.429 318.595 289.466C318.747 289.598 318.764 289.827 318.632 289.979C318.501 290.131 318.271 290.148 318.12 290.016C318.091 289.992 317.363 289.395 316.318 289.827C315.415 290.2 314.617 291.374 314.609 291.386C314.556 291.468 314.474 291.52 314.386 291.538Z" fill="white"/>
<path d="M312.546 280.842C311.384 281.342 309.707 281.489 308.09 281.459C307.839 281.459 307.59 281.452 307.347 281.43C306.751 281.408 306.177 281.357 305.655 281.298L298.543 207.551L297.962 201.49L299.33 201.387L300.065 201.336L312.268 200.446C312.268 200.446 312.26 201.932 312.26 204.351C312.253 212.662 312.297 232.021 312.767 240.383C313.37 251.187 312.546 280.842 312.546 280.842Z" fill="#3B3E7D"/>
<path d="M312.267 200.446C312.267 200.446 312.259 201.932 312.259 204.351L298.542 207.551L297.961 201.49L299.329 201.387L300.064 201.336L312.267 200.446Z" fill="#18285D"/>
<path d="M308.087 281.459C307.837 281.459 307.587 281.452 307.344 281.43L299.327 201.387L300.063 201.336L308.087 281.459Z" fill="#18285D"/>
<path d="M309.305 158.393L312.585 168.931L316.177 178.948C316.755 181.045 319.07 182.124 321.047 181.221C321.082 181.206 321.117 181.19 321.151 181.175C324.569 179.559 322.684 172.858 322.684 172.858L322.039 172.808C321.777 172.072 321.067 170.201 320.164 167.849C320.055 167.56 319.94 167.263 319.825 166.962C319.633 166.462 319.434 165.947 319.232 165.417C318.943 164.669 318.646 163.898 318.344 163.121C316.13 157.376 314.295 151.144 314.295 151.144L312.766 146.605L309.305 158.393Z" fill="#FAB083"/>
<path d="M319.008 175.158C319.008 175.158 319.479 167.524 321.108 165.901C322.737 164.278 324.223 163.659 325.751 163.714C327.279 163.769 328.716 163.958 328.621 164.587C328.621 164.587 332.13 164.057 333.698 164.966C335.264 165.875 329.057 166.671 327.215 166.719C325.372 166.767 324.398 167.797 324.324 168.895C324.249 169.993 323.186 177.268 323.186 177.268L319.008 175.158Z" fill="#FAB083"/>
<path d="M309.812 161.195C309.812 161.195 315.61 179.704 316.937 180.962C318.264 182.219 321.246 183.506 322.874 180.12C324.501 176.733 324.826 167.688 324.826 167.688L320.778 165.805L320.145 167.799L312.83 146.558C312.83 146.558 310.231 159.798 309.812 161.195Z" fill="#7A8BFC"/>
<path d="M318.519 175.003C318.533 175.005 318.546 175.005 318.56 175.005C318.691 175.006 318.807 174.912 318.828 174.779C319.327 171.602 319.813 169.205 320.145 167.798C320.035 167.51 319.96 167.228 319.845 166.928C319.533 168.168 318.9 170.844 318.294 174.694C318.272 174.841 318.372 174.979 318.519 175.003Z" fill="#3252F6"/>
<path d="M317.149 165.081L340.407 165.236C341.282 165.242 341.995 164.538 342.002 163.663V163.65C342.007 162.775 341.304 162.061 340.429 162.055L317.171 161.9C316.296 161.894 315.583 162.598 315.576 163.472V163.486C315.57 164.361 316.274 165.075 317.149 165.081Z" fill="#18285D"/>
<path d="M341.985 165.248L347.076 146.68C347.362 145.637 346.582 144.606 345.5 144.599L334.57 144.526C333.833 144.521 333.182 145.007 332.978 145.716L327.378 165.15L341.985 165.248Z" fill="#3B3E7D"/>
<path d="M332.978 145.715L327.425 164.989L326.175 164.981L331.728 145.707C331.934 144.998 332.584 144.511 333.322 144.516L334.571 144.524C333.833 144.519 333.183 145.006 332.978 145.715Z" fill="#18285D"/>
<path d="M335.721 155.702C335.429 156.927 336.187 157.927 337.413 157.935C338.64 157.943 339.872 156.956 340.164 155.731C340.457 154.506 339.698 153.506 338.472 153.498C337.245 153.49 336.014 154.477 335.721 155.702Z" fill="#58619B"/>
<path d="M247.957 139.279C247.5 139.332 247.062 139.283 246.69 139.087C245.706 138.572 244.889 138.061 244.417 137.751C244.136 137.559 243.975 137.448 243.975 137.448C243.975 137.448 243.964 137.448 243.956 137.456C243.848 137.474 243.318 137.552 242.428 137.044C241.425 136.468 240.903 135.497 241.029 134.963C241.152 134.429 241.847 134.291 241.847 134.291C241.847 134.291 241.498 133.783 241.671 133.231C241.844 132.674 242.953 132.389 242.953 132.389C242.953 132.389 242.642 131.69 243.199 131.234C243.729 130.792 244.907 131.629 245.011 131.694C244.854 131.529 241.321 127.828 242.369 127.804C243.44 127.781 247.161 131.187 247.338 131.264C247.511 131.345 248.417 131.283 249.296 131.403C250.175 131.518 250.609 131.921 251.005 133.249C251.401 134.578 251.275 136.722 251.275 136.722C251.547 136.926 252.074 137.4 252.389 137.63C252.389 137.63 252.583 137.735 252.602 137.747C253.263 138.127 263.627 143.921 266.949 146.513C266.953 146.513 266.953 146.517 266.957 146.517C267.075 146.609 267.264 146.686 267.514 146.755C270.927 147.68 285.639 146.571 285.639 146.571L286.399 154.616C286.399 154.616 271.626 155.491 264.583 151.985C259.027 149.22 250.122 140.896 250.122 140.896L247.957 139.279Z" fill="#FAB083"/>
<path d="M249.163 134.946C249.201 134.955 249.242 134.957 249.282 134.947C249.413 134.916 249.494 134.784 249.463 134.653L249.199 133.542C249.183 133.475 249.14 133.418 249.081 133.385C249.02 133.352 248.95 133.345 248.885 133.366C248.873 133.37 247.614 133.775 246.695 133.266C246.414 133.109 246.245 132.93 246.207 132.746C246.163 132.539 246.293 132.364 246.294 132.362C246.375 132.256 246.356 132.102 246.25 132.021C246.145 131.939 245.994 131.956 245.91 132.061C245.882 132.096 245.642 132.414 245.727 132.837C245.794 133.172 246.04 133.46 246.458 133.693C247.3 134.16 248.316 134.009 248.783 133.9L248.989 134.767C249.01 134.856 249.079 134.923 249.163 134.946Z" fill="#FC8664"/>
<path d="M243.954 137.453C243.967 137.448 243.974 137.447 243.974 137.447C243.974 137.447 244.135 137.56 244.418 137.747C244.963 137.37 245.149 136.795 245.307 136.311C245.444 135.891 245.563 135.527 245.86 135.318C246.167 135.103 246.344 134.822 246.44 134.534C246.536 134.257 246.555 133.973 246.544 133.735C246.54 133.647 246.534 133.564 246.524 133.492C246.501 133.304 246.465 133.178 246.461 133.162C246.423 133.031 246.289 132.955 246.158 132.993C246.029 133.029 245.954 133.164 245.99 133.294C245.991 133.296 245.996 133.316 246.003 133.352C246.037 133.499 246.103 133.903 245.999 134.291C245.937 134.525 245.811 134.755 245.578 134.919C245.148 135.22 244.991 135.697 244.841 136.16C244.671 136.683 244.508 137.183 243.954 137.453Z" fill="#FC8664"/>
<path d="M247.705 136.581C247.794 136.605 247.892 136.577 247.956 136.503C248.043 136.4 248.03 136.246 247.926 136.159C247.914 136.149 246.696 135.096 246.913 133.725C246.934 133.591 246.842 133.466 246.71 133.445C246.576 133.424 246.451 133.515 246.43 133.648C246.17 135.295 247.552 136.483 247.611 136.532C247.639 136.556 247.672 136.572 247.705 136.581Z" fill="#FC8664"/>
<path d="M313.5 200.671C307.689 202.015 302.992 202.702 298.353 202.744C298.325 202.744 298.297 202.748 298.269 202.744C298.24 202.748 298.213 202.744 298.183 202.744C293.543 202.702 288.85 202.015 283.036 200.671C282.222 190.251 285.782 183.655 285.387 171.975C285.383 171.874 285.379 171.772 285.376 171.671C285.358 171.166 285.335 170.667 285.311 170.168C285.265 169.221 285.209 168.284 285.143 167.362C285.109 166.857 285.071 166.355 285.032 165.86C284.231 155.768 282.632 147.774 283.499 146.68C284.44 145.491 286.835 144.089 289.269 142.788C291.577 141.556 293.919 140.414 295.092 139.633C296.256 140.14 297.184 140.418 298.183 140.413C298.21 140.413 298.24 140.413 298.269 140.41C298.297 140.413 298.326 140.413 298.353 140.413C299.352 140.418 300.28 140.141 301.445 139.633C302.534 140.357 304.585 141.368 306.677 142.47C309.22 143.81 311.824 145.286 312.83 146.557C313.734 147.698 312.113 156.44 311.394 167.17C311.363 167.652 311.332 168.136 311.304 168.626C311.242 169.684 311.191 170.758 311.154 171.843C311.152 171.887 311.15 171.931 311.15 171.974C311.134 172.403 311.125 172.825 311.121 173.24C311.008 184.145 314.283 190.633 313.5 200.671Z" fill="#7A8BFC"/>
<path d="M307.674 187.498H307.673C301.815 187.472 296.815 184.807 293.652 182.575C290.232 180.162 288.159 177.716 288.138 177.692C288.038 177.573 288.054 177.395 288.172 177.294C288.292 177.194 288.469 177.21 288.569 177.328C288.589 177.353 290.625 179.751 293.99 182.123C297.084 184.304 301.97 186.909 307.674 186.934C307.83 186.935 307.956 187.062 307.955 187.217C307.956 187.373 307.83 187.498 307.674 187.498Z" fill="#3252F6"/>
<path d="M301.57 189.489C296.487 189.489 291.418 186.592 291.188 186.459C291.053 186.381 291.007 186.208 291.085 186.074C291.164 185.939 291.336 185.893 291.471 185.97C291.53 186.004 297.495 189.411 302.783 188.864C302.94 188.846 303.076 188.961 303.092 189.115C303.109 189.27 302.996 189.409 302.841 189.425C302.418 189.469 301.994 189.489 301.57 189.489Z" fill="#3252F6"/>
<path d="M297.069 153.879C296.937 153.879 296.818 153.784 296.793 153.649C296.763 153.497 296.864 153.349 297.017 153.32C304.158 151.965 306.312 147.371 306.332 147.325C306.396 147.183 306.563 147.12 306.705 147.184C306.846 147.249 306.91 147.415 306.846 147.557C306.755 147.757 304.549 152.465 297.122 153.875C297.104 153.877 297.086 153.879 297.069 153.879Z" fill="#3252F6"/>
<path d="M298.86 145.077C294.758 145.499 293.255 140.534 293.241 140.483C293.209 140.374 293.271 140.262 293.379 140.231C293.487 140.2 293.599 140.261 293.631 140.369C293.689 140.568 295.112 145.253 299.056 144.642C302.508 144.109 302.315 140.237 302.305 140.073C302.299 139.961 302.382 139.864 302.495 139.858C302.608 139.851 302.704 139.936 302.711 140.048C302.713 140.092 302.938 144.454 299.117 145.043C299.03 145.057 298.944 145.068 298.86 145.077Z" fill="white"/>
<path d="M290.502 128.515C290.502 128.515 287.126 122.744 289.973 118.289C292.819 113.834 298.865 114.255 300.431 114.605C301.998 114.955 311.014 119.183 305.56 129.436L290.502 128.515Z" fill="#1E1E1F"/>
<path d="M291.066 126.882C291.066 126.882 289.699 125.06 288.683 126.566C287.667 128.072 289.104 132.522 291.591 131.436L291.066 126.882Z" fill="#FC8664"/>
<path d="M291.048 130.061C290.956 130.061 290.872 130 290.846 129.907C290.46 128.533 289.037 127.977 289.023 127.971C288.914 127.929 288.86 127.808 288.901 127.7C288.942 127.592 289.063 127.537 289.171 127.578C289.238 127.603 290.806 128.212 291.25 129.794C291.281 129.905 291.216 130.022 291.104 130.053C291.086 130.058 291.067 130.061 291.048 130.061Z" fill="#FD664D"/>
<path d="M289.612 129.369C289.573 129.369 289.534 129.358 289.498 129.336C289.4 129.273 289.372 129.143 289.435 129.045C289.446 129.028 289.698 128.645 290.224 128.409C290.33 128.361 290.454 128.409 290.502 128.515C290.55 128.62 290.502 128.745 290.397 128.793C289.99 128.975 289.791 129.27 289.79 129.272C289.748 129.335 289.681 129.369 289.612 129.369Z" fill="#FD664D"/>
<path d="M305.145 126.882C305.145 126.882 306.512 125.06 307.528 126.566C308.544 128.072 307.107 132.522 304.62 131.436L305.145 126.882Z" fill="#FC8664"/>
<path d="M305.163 130.061C305.255 130.061 305.34 130 305.366 129.907C305.751 128.533 307.174 127.977 307.189 127.971C307.297 127.929 307.352 127.808 307.311 127.7C307.269 127.592 307.148 127.537 307.04 127.578C306.973 127.603 305.405 128.212 304.962 129.794C304.93 129.905 304.996 130.022 305.107 130.053C305.125 130.058 305.144 130.061 305.163 130.061Z" fill="#FD664D"/>
<path d="M306.6 129.369C306.639 129.369 306.678 129.358 306.713 129.336C306.811 129.273 306.839 129.143 306.776 129.045C306.765 129.028 306.513 128.645 305.987 128.409C305.881 128.361 305.757 128.409 305.709 128.515C305.662 128.62 305.709 128.745 305.814 128.793C306.222 128.975 306.42 129.27 306.422 129.272C306.463 129.335 306.53 129.369 306.6 129.369Z" fill="#FD664D"/>
<path d="M301.469 135.209V139.633C301.469 139.633 300.15 141.886 298.365 142.04C296.582 142.195 294.998 140.1 294.998 140.1V135.519L301.469 135.209Z" fill="#FAB083"/>
<path d="M301.469 135.209V137.172C300.272 138.501 298.145 138.833 294.998 138.368V135.519L301.469 135.209Z" fill="#FC8664"/>
<path d="M306.134 123.847C306.052 125.566 305.888 127.716 305.56 129.436C305.478 129.865 305.385 130.268 305.283 130.63C304.351 133.89 302.023 139.481 295.502 137.152C292.622 136.124 291.288 132.916 290.693 129.654C290.29 127.438 290.228 125.2 290.258 123.601C290.29 121.968 291.181 120.476 292.601 119.67C296.45 117.489 300.511 118.302 303.184 119.33C305.041 120.042 306.228 121.864 306.134 123.847Z" fill="#FAB083"/>
<path d="M296.348 117.547C296.348 117.547 304.952 131.347 306.139 126.286C307.819 119.113 302.68 114.675 296.348 117.547Z" fill="#1E1E1F"/>
<path d="M295.991 117.546C290.265 117.589 287.417 124.095 290.073 124.865C293.768 125.937 296.972 120.707 297.958 118.892C297.295 118.454 296.631 118.018 295.991 117.546Z" fill="#1E1E1F"/>
<path d="M306.421 114.452C306.421 117.579 303.886 120.114 300.759 120.114C297.632 120.114 295.097 117.579 295.097 114.452C295.097 111.325 297.632 108.79 300.759 108.79C303.886 108.789 306.421 111.324 306.421 114.452Z" fill="#1E1E1F"/>
<path d="M291.259 124.247C291.259 124.247 291.704 125.977 291.096 127.141C290.488 128.305 290.822 130.3 291.096 132.541C291.096 132.541 290.13 131.175 290.073 128.986C290.017 126.796 290.375 124.975 290.073 124.099L291.259 124.247Z" fill="#1E1E1F"/>
<path d="M304.777 124.247C304.777 124.247 304.332 125.977 304.94 127.141C305.548 128.305 305.213 130.3 304.94 132.541C304.94 132.541 305.906 131.175 305.962 128.986C306.018 126.796 305.661 124.975 305.962 124.099L304.777 124.247Z" fill="#1E1E1F"/>
<path d="M295.234 127.141C295.234 127.613 294.99 127.996 294.69 127.996C294.39 127.996 294.146 127.613 294.146 127.141C294.146 126.669 294.39 126.286 294.69 126.286C294.991 126.286 295.234 126.669 295.234 127.141Z" fill="#1E1E1F"/>
<path d="M301.948 127.141C301.948 127.613 301.705 127.996 301.405 127.996C301.105 127.996 300.861 127.613 300.861 127.141C300.861 126.669 301.105 126.286 301.405 126.286C301.705 126.286 301.948 126.669 301.948 127.141Z" fill="#1E1E1F"/>
<path d="M293.614 124.595C294.066 124.468 294.977 124.25 295.939 124.246C296.193 124.246 296.386 124.471 296.342 124.72L296.34 124.727C296.304 124.926 296.126 125.067 295.925 125.057C295.269 125.026 293.551 125.119 292.74 125.447C292.723 125.306 292.807 125.151 292.925 125.015C293.104 124.807 293.35 124.669 293.614 124.595Z" fill="#1E1E1F"/>
<path d="M302.398 124.612C301.946 124.485 301.034 124.267 300.073 124.264C299.819 124.263 299.626 124.488 299.671 124.737L299.671 124.744C299.707 124.943 299.885 125.084 300.087 125.074C300.741 125.043 302.46 125.136 303.271 125.464C303.288 125.323 303.205 125.168 303.086 125.032C302.908 124.824 302.662 124.687 302.398 124.612Z" fill="#1E1E1F"/>
<path d="M298.179 131.043C298.018 131.043 297.856 131.014 297.722 130.934C297.599 130.86 297.446 130.711 297.416 130.42C297.337 129.648 297.534 127.226 297.542 127.123C297.552 127.008 297.653 126.922 297.769 126.93C297.885 126.94 297.971 127.042 297.961 127.157C297.959 127.182 297.758 129.643 297.834 130.376C297.847 130.504 297.899 130.549 297.937 130.572C298.135 130.69 298.591 130.569 298.78 130.492C298.888 130.448 299.01 130.5 299.054 130.608C299.098 130.715 299.047 130.838 298.94 130.882C298.885 130.905 298.533 131.043 298.179 131.043Z" fill="#FC8664"/>
<path d="M295.509 132.37C295.668 133.17 296.196 134.64 297.975 134.64C299.759 134.64 300.259 133.296 300.431 132.37H295.509Z" fill="white"/>
<path d="M297.95 135.867C297.437 135.867 296.983 135.591 296.964 135.579C296.866 135.518 296.835 135.389 296.896 135.289C296.957 135.191 297.086 135.16 297.185 135.221C297.188 135.224 297.558 135.447 297.949 135.447C298.373 135.447 298.753 135.223 298.757 135.22C298.856 135.16 298.985 135.193 299.045 135.292C299.104 135.391 299.074 135.519 298.974 135.58C298.956 135.592 298.494 135.867 297.95 135.867Z" fill="#FC8664"/>
<path d="M252.397 137.397L249.471 141.259C249.471 141.259 260.497 150.707 265.945 152.575C271.393 154.443 284.032 156.175 284.032 156.175C284.951 153.013 284.523 149.847 283.501 146.68C283.501 146.68 270.489 146.988 266.751 145.102C258.742 141.061 252.397 137.397 252.397 137.397Z" fill="#7A8BFC"/>
<path d="M248.442 43.3631C248.369 43.3704 248.294 43.3606 248.221 43.3305C247.455 43.007 247.005 42.8559 247.001 42.855C246.766 42.7762 246.639 42.5226 246.717 42.2877C246.796 42.0528 247.049 41.926 247.284 42.004C247.304 42.0105 247.767 42.1658 248.569 42.5047C248.798 42.6006 248.904 42.864 248.808 43.0924C248.743 43.2468 248.6 43.346 248.442 43.3631Z" fill="#DBE6F7"/>
<path d="M271.301 67.4201C271.606 68.2337 271.892 69.0734 272.151 69.9146C272.215 70.1235 272.417 70.2511 272.626 70.2292C272.655 70.2259 272.683 70.2202 272.711 70.2121C272.947 70.139 273.08 69.8886 273.007 69.6521C272.744 68.7929 272.452 67.937 272.141 67.1063C272.054 66.8747 271.796 66.7568 271.564 66.8438C271.331 66.9299 271.214 67.1884 271.301 67.4201Z" fill="#DBE6F7"/>
<path d="M272.849 72.4563C273.055 73.2992 273.241 74.1664 273.401 75.0353C273.444 75.267 273.658 75.4239 273.889 75.3995C273.9 75.3987 273.912 75.3962 273.924 75.3946C274.168 75.3491 274.329 75.115 274.283 74.872C274.119 73.9868 273.929 73.1033 273.721 72.2441C273.662 72.0035 273.419 71.8564 273.178 71.9149C272.939 71.9726 272.791 72.2157 272.849 72.4563Z" fill="#DBE6F7"/>
<path d="M274.197 77.1373C273.952 77.1698 273.778 77.3942 273.811 77.6396C273.863 78.0452 273.911 78.4549 273.954 78.8572C274.003 79.3213 274.046 79.796 274.083 80.2658C274.102 80.5129 274.318 80.6974 274.565 80.6779C274.569 80.6771 274.573 80.6771 274.577 80.6763C274.818 80.6511 274.996 80.4382 274.977 80.1951C274.94 79.7172 274.895 79.2344 274.845 78.7621C274.802 78.3525 274.753 77.9355 274.7 77.5226C274.668 77.2804 274.449 77.1088 274.208 77.134C274.205 77.1373 274.202 77.1373 274.197 77.1373Z" fill="#DBE6F7"/>
<path d="M270.301 64.9832C270.382 65.1644 270.569 65.266 270.758 65.2465C270.803 65.2417 270.849 65.2295 270.893 65.21C271.119 65.1092 271.221 64.8434 271.12 64.6174C270.754 63.8005 270.359 62.9861 269.944 62.1968C269.829 61.9774 269.558 61.8937 269.338 62.0083C269.119 62.1237 269.034 62.3952 269.15 62.6138C269.555 63.3868 269.943 64.1842 270.301 64.9832Z" fill="#DBE6F7"/>
<path d="M250.604 44.4441C251.374 44.8375 252.151 45.2659 252.914 45.7178C253 45.769 253.096 45.7877 253.189 45.7779C253.326 45.7633 253.453 45.6869 253.528 45.5601C253.654 45.3471 253.583 45.0716 253.37 44.9456C252.592 44.4847 251.798 44.0466 251.011 43.6451C250.791 43.5329 250.52 43.6199 250.408 43.8402C250.296 44.0613 250.383 44.3319 250.604 44.4441Z" fill="#DBE6F7"/>
<path d="M257.289 48.6683C257.384 48.7407 257.498 48.7691 257.608 48.7578C257.727 48.7456 257.84 48.6862 257.917 48.5838C258.067 48.3871 258.03 48.1059 257.833 47.9555C257.123 47.4134 256.387 46.885 255.647 46.386C255.441 46.2478 255.163 46.3014 255.024 46.5071C254.885 46.7127 254.94 46.9915 255.145 47.1297C255.871 47.6182 256.592 48.1368 257.289 48.6683Z" fill="#DBE6F7"/>
<path d="M264.825 56.0113C264.924 56.1349 265.075 56.1926 265.222 56.1771C265.304 56.1682 265.386 56.1365 265.455 56.0812C265.648 55.9268 265.68 55.6439 265.525 55.4505C264.967 54.7547 264.379 54.0654 263.777 53.403C263.61 53.2201 263.327 53.2063 263.143 53.3729C262.959 53.5395 262.946 53.8232 263.113 54.0061C263.703 54.6555 264.279 55.3302 264.825 56.0113Z" fill="#DBE6F7"/>
<path d="M261.282 52.1114C261.381 52.2081 261.514 52.2496 261.642 52.2357C261.742 52.2252 261.84 52.1805 261.916 52.1024C262.088 51.9253 262.085 51.6408 261.907 51.4684C261.269 50.8475 260.601 50.2362 259.922 49.651C259.734 49.4892 259.451 49.5104 259.289 49.6981C259.128 49.8859 259.149 50.1687 259.337 50.3305C260.002 50.9043 260.657 51.5034 261.282 52.1114Z" fill="#DBE6F7"/>
<path d="M267.85 60.3233C267.944 60.4761 268.114 60.5533 268.28 60.5354C268.344 60.5289 268.408 60.5078 268.466 60.472C268.678 60.3428 268.744 60.0664 268.615 59.8551C268.149 59.0927 267.654 58.3351 267.141 57.6036C266.998 57.4012 266.719 57.3516 266.516 57.4939C266.313 57.6361 266.264 57.9157 266.406 58.1189C266.908 58.835 267.394 59.5771 267.85 60.3233Z" fill="#DBE6F7"/>
<path d="M229.305 30.0877L225.691 43.7424L245.459 48.9733L249.073 35.3185L229.305 30.0877Z" fill="#3252F6"/>
<path d="M239.229 40.2679L244.892 48.8163L245.464 48.9675L245.557 48.6196L239.781 39.9021L239.229 40.2679Z" fill="#1D38C8"/>
<path d="M225.776 43.4346L225.697 43.737L226.321 43.902L235.472 39.2738L235.173 38.6829L225.776 43.4346Z" fill="#1D38C8"/>
<path d="M249.079 35.3129L236.869 41.4879L229.311 30.0816L249.079 35.3129Z" fill="#7A8BFC"/>
<path d="M305.555 59.8909C302.829 59.8909 300.612 57.6736 300.612 54.9482C300.612 52.2228 302.829 50.0054 305.555 50.0054C308.28 50.0054 310.497 52.2228 310.497 54.9482C310.497 57.6736 308.28 59.8909 305.555 59.8909ZM305.555 51.5563C303.684 51.5563 302.163 53.0779 302.163 54.9482C302.163 56.8185 303.684 58.3401 305.555 58.3401C307.425 58.3401 308.946 56.8185 308.946 54.9482C308.946 53.0779 307.425 51.5563 305.555 51.5563Z" fill="#7A8BFC"/>
<path d="M330.674 64.919C327.949 64.919 325.731 62.7016 325.731 59.9763C325.731 57.2509 327.949 55.0335 330.674 55.0335C333.4 55.0335 335.617 57.2509 335.617 59.9763C335.616 62.7016 333.399 64.919 330.674 64.919ZM330.674 56.5844C328.804 56.5844 327.282 58.106 327.282 59.9763C327.282 61.8466 328.804 63.3682 330.674 63.3682C332.544 63.3682 334.066 61.8466 334.066 59.9763C334.065 58.106 332.544 56.5844 330.674 56.5844Z" fill="#3252F6"/>
<path d="M342.577 75.0101C342.148 75.0101 341.801 74.663 341.801 74.2347V70.816C341.801 70.3876 342.148 70.0405 342.577 70.0405C343.005 70.0405 343.352 70.3876 343.352 70.816V74.2347C343.352 74.6638 343.005 75.0101 342.577 75.0101Z" fill="#7A8BFC"/>
<path d="M342.577 80.9932C342.148 80.9932 341.801 80.6461 341.801 80.2178V76.799C341.801 76.3707 342.148 76.0236 342.577 76.0236C343.005 76.0236 343.352 76.3707 343.352 76.799V80.2178C343.352 80.6461 343.005 80.9932 342.577 80.9932Z" fill="#7A8BFC"/>
<path d="M347.375 76.2928H344.304C343.875 76.2928 343.528 75.9457 343.528 75.5173C343.528 75.089 343.875 74.7419 344.304 74.7419H347.375C347.804 74.7419 348.151 75.089 348.151 75.5173C348.151 75.9457 347.804 76.2928 347.375 76.2928Z" fill="#7A8BFC"/>
<path d="M340.85 76.2927H337.778C337.35 76.2927 337.002 75.9457 337.002 75.5173C337.002 75.089 337.35 74.7419 337.778 74.7419H340.85C341.278 74.7419 341.625 75.089 341.625 75.5173C341.624 75.9457 341.277 76.2927 340.85 76.2927Z" fill="#7A8BFC"/>
<path d="M316.179 69.435C315.75 69.435 315.403 69.088 315.403 68.6596V65.2409C315.403 64.8125 315.75 64.4655 316.179 64.4655C316.607 64.4655 316.954 64.8125 316.954 65.2409V68.6596C316.954 69.088 316.607 69.435 316.179 69.435Z" fill="#3252F6"/>
<path d="M316.179 75.4182C315.75 75.4182 315.403 75.0711 315.403 74.6427V71.224C315.403 70.7957 315.75 70.4486 316.179 70.4486C316.607 70.4486 316.954 70.7957 316.954 71.224V74.6427C316.954 75.0711 316.607 75.4182 316.179 75.4182Z" fill="#3252F6"/>
<path d="M320.977 70.7169H317.906C317.477 70.7169 317.13 70.3698 317.13 69.9414C317.13 69.5131 317.477 69.166 317.906 69.166H320.977C321.406 69.166 321.753 69.5131 321.753 69.9414C321.753 70.3706 321.406 70.7169 320.977 70.7169Z" fill="#3252F6"/>
<path d="M314.452 70.7168H311.38C310.952 70.7168 310.604 70.3698 310.604 69.9414C310.604 69.5131 310.952 69.166 311.38 69.166H314.452C314.88 69.166 315.227 69.5131 315.227 69.9414C315.226 70.3706 314.879 70.7168 314.452 70.7168Z" fill="#3252F6"/>
<path d="M16.4084 170.172C16.4084 172.898 14.1911 175.115 11.4657 175.115C8.74032 175.115 6.52295 172.898 6.52295 170.172C6.52295 167.447 8.74032 165.23 11.4657 165.23C14.1911 165.23 16.4084 167.448 16.4084 170.172ZM8.07381 170.172C8.07381 172.043 9.5954 173.564 11.4657 173.564C13.336 173.564 14.8576 172.043 14.8576 170.172C14.8576 168.302 13.336 166.781 11.4657 166.781C9.5954 166.781 8.07381 168.302 8.07381 170.172Z" fill="#7A8BFC"/>
<path d="M21.4363 145.053C21.4363 147.778 19.2189 149.996 16.4935 149.996C13.7681 149.996 11.5508 147.778 11.5508 145.053C11.5508 142.328 13.7681 140.11 16.4935 140.11C19.2189 140.11 21.4363 142.328 21.4363 145.053ZM13.1016 145.053C13.1016 146.923 14.6232 148.445 16.4935 148.445C18.3638 148.445 19.8854 146.923 19.8854 145.053C19.8854 143.183 18.3638 141.661 16.4935 141.661C14.6232 141.661 13.1016 143.183 13.1016 145.053Z" fill="#3252F6"/>
<path d="M31.5277 133.15C31.5277 133.579 31.1806 133.926 30.7522 133.926H27.3335C26.9052 133.926 26.5581 133.579 26.5581 133.15C26.5581 132.722 26.9052 132.375 27.3335 132.375H30.7522C31.1806 132.376 31.5277 132.723 31.5277 133.15Z" fill="#7A8BFC"/>
<path d="M37.5106 133.15C37.5106 133.579 37.1635 133.926 36.7352 133.926H33.3164C32.8881 133.926 32.541 133.579 32.541 133.15C32.541 132.722 32.8881 132.375 33.3164 132.375H36.7352C37.1635 132.376 37.5106 132.723 37.5106 133.15Z" fill="#7A8BFC"/>
<path d="M32.8101 128.351V131.423C32.8101 131.851 32.4631 132.198 32.0347 132.198C31.6064 132.198 31.2593 131.851 31.2593 131.423V128.351C31.2593 127.923 31.6064 127.576 32.0347 127.576C32.4631 127.576 32.8101 127.924 32.8101 128.351Z" fill="#7A8BFC"/>
<path d="M32.8101 134.878V137.95C32.8101 138.378 32.4631 138.725 32.0347 138.725C31.6064 138.725 31.2593 138.378 31.2593 137.95V134.878C31.2593 134.45 31.6064 134.103 32.0347 134.103C32.4631 134.103 32.8101 134.45 32.8101 134.878Z" fill="#7A8BFC"/>
<path d="M25.9525 159.549C25.9525 159.977 25.6054 160.324 25.1771 160.324H21.7583C21.33 160.324 20.9829 159.977 20.9829 159.549C20.9829 159.121 21.33 158.773 21.7583 158.773H25.1771C25.6054 158.773 25.9525 159.121 25.9525 159.549Z" fill="#3252F6"/>
<path d="M31.9354 159.549C31.9354 159.977 31.5883 160.324 31.16 160.324H27.7412C27.3129 160.324 26.9658 159.977 26.9658 159.549C26.9658 159.121 27.3129 158.773 27.7412 158.773H31.16C31.5883 158.773 31.9354 159.121 31.9354 159.549Z" fill="#3252F6"/>
<path d="M27.2345 154.749V157.821C27.2345 158.249 26.8874 158.596 26.459 158.596C26.0307 158.596 25.6836 158.249 25.6836 157.821V154.749C25.6836 154.321 26.0307 153.974 26.459 153.974C26.8882 153.974 27.2345 154.322 27.2345 154.749Z" fill="#3252F6"/>
<path d="M27.2345 161.276V164.348C27.2345 164.776 26.8874 165.123 26.459 165.123C26.0307 165.123 25.6836 164.776 25.6836 164.348V161.276C25.6836 160.848 26.0307 160.501 26.459 160.501C26.8882 160.501 27.2345 160.848 27.2345 161.276Z" fill="#3252F6"/>
<path d="M94.3779 52.604V67.9142C94.3779 69.9382 96.0198 71.5801 98.0437 71.5801H125.843L134.235 74.5907C135.097 74.9004 135.922 74.0535 135.592 73.2008L132.417 65.0019V52.6032C132.417 50.5793 130.775 48.9374 128.75 48.9374H98.0437C96.0198 48.9382 94.3779 50.5801 94.3779 52.604Z" fill="#7A8BFC"/>
<path d="M118.528 60.6948C118.528 62.1595 119.716 63.347 121.18 63.347C122.644 63.347 123.832 62.1595 123.832 60.6948C123.832 59.2301 122.644 58.0434 121.18 58.0434C119.715 58.0434 118.528 59.2301 118.528 60.6948Z" fill="#3252F6"/>
<path d="M110.134 60.6948C110.134 62.1595 111.321 63.347 112.785 63.347C114.25 63.347 115.437 62.1595 115.437 60.6948C115.437 59.2301 114.25 58.0434 112.785 58.0434C111.321 58.0426 110.134 59.2301 110.134 60.6948Z" fill="#3252F6"/>
<path d="M101.74 60.6948C101.74 62.1595 102.927 63.347 104.392 63.347C105.857 63.347 107.044 62.1595 107.044 60.6948C107.044 59.2301 105.857 58.0434 104.392 58.0434C102.926 58.0426 101.74 59.2301 101.74 60.6948Z" fill="#3252F6"/>
</svg>
