<svg width="233" height="49" viewBox="0 0 233 49" fill="none" xmlns="http://www.w3.org/2000/svg">
<path d="M37.1745 3.856C36.1825 8.03067 35.1492 12.04 34.0745 15.884C33.0412 19.6867 31.9459 23.386 30.7885 26.982C29.6312 30.578 28.3912 34.112 27.0685 37.584C25.7872 41.056 24.3819 44.528 22.8525 48L15.1025 48.744C13.5732 45.3547 12.1472 41.9447 10.8245 38.514C9.54318 35.042 8.32385 31.508 7.16652 27.912C6.00918 24.2747 4.89318 20.534 3.81852 16.69C2.78518 12.846 1.77252 8.816 0.780516 4.6L9.21252 3.856C10.6592 10.0147 12.1265 16.2767 13.6145 22.642C15.1025 29.0073 16.8798 35.1247 18.9465 40.994C19.9798 38.142 20.9305 35.29 21.7985 32.438C22.7079 29.5447 23.5345 26.5893 24.2785 23.572C25.0639 20.5547 25.8079 17.4753 26.5105 14.334C27.2545 11.1927 27.9779 7.948 28.6805 4.6L37.1745 3.856ZM50.6862 17C50.5622 17.9507 50.4588 18.86 50.3762 19.728C50.3348 20.596 50.2935 21.5673 50.2522 22.642C50.2522 23.6753 50.2315 24.8947 50.1902 26.3C50.1902 27.664 50.1902 29.2967 50.1902 31.198C50.1902 33.0993 50.1902 34.8147 50.1902 36.344C50.1902 37.8733 50.1902 39.2993 50.1902 40.622C50.2315 41.9447 50.2522 43.2053 50.2522 44.404C50.2935 45.5613 50.3348 46.76 50.3762 48H42.0062C42.0475 46.4707 42.0888 45.1273 42.1302 43.97C42.2128 42.8127 42.2748 41.5933 42.3162 40.312C42.3575 38.9893 42.3988 37.522 42.4402 35.91C42.4815 34.2567 42.5022 32.2107 42.5022 29.772C42.5022 27.54 42.4815 25.4527 42.4402 23.51C42.3988 21.526 42.3162 19.356 42.1922 17H50.6862ZM42.0062 6.894C42.0062 5.73666 42.3988 4.74466 43.1842 3.918C44.0108 3.05 45.1268 2.616 46.5322 2.616C47.7308 2.616 48.7642 2.96733 49.6322 3.67C50.5415 4.37267 50.9962 5.32333 50.9962 6.522C50.9962 7.67933 50.5622 8.65066 49.6942 9.436C48.8675 10.2213 47.7515 10.614 46.3462 10.614C45.1475 10.614 44.1142 10.304 43.2462 9.684C42.4195 9.02267 42.0062 8.09267 42.0062 6.894ZM55.0823 17.496C56.4463 17.4133 57.5623 17.186 58.4303 16.814C59.2983 16.4007 60.001 15.822 60.5383 15.078C61.117 14.2927 61.5923 13.28 61.9643 12.04C62.3363 10.8 62.7083 9.312 63.0803 7.576L68.8463 5.902C68.4743 8.17533 68.185 10.18 67.9783 11.916C67.7717 13.652 67.5857 15.3467 67.4203 17H74.1163L73.5583 22.27L67.1103 21.836C66.945 24.316 66.821 26.61 66.7383 28.718C66.697 30.7847 66.6763 32.562 66.6763 34.05C66.6763 35.7447 66.7177 37.1087 66.8003 38.142C66.9243 39.134 67.0897 39.9193 67.2963 40.498C67.5443 41.0353 67.8543 41.4073 68.2263 41.614C68.6397 41.7793 69.1563 41.862 69.7763 41.862C70.603 41.862 71.409 41.7587 72.1943 41.552C72.9797 41.304 73.641 41.0147 74.1783 40.684L73.2483 47.132C72.2563 47.6693 71.3263 48.062 70.4583 48.31C69.5903 48.5993 68.557 48.744 67.3583 48.744C65.9943 48.744 64.7957 48.5373 63.7623 48.124C62.729 47.7107 61.861 47.0287 61.1583 46.078C60.497 45.086 60.001 43.8253 59.6703 42.296C59.3397 40.7253 59.1743 38.824 59.1743 36.592C59.1743 34.732 59.257 32.4587 59.4223 29.772C59.629 27.0853 59.8357 24.2953 60.0423 21.402H55.5163L55.0823 17.496Z" fill="#3252F6"/>
<path d="M76.2694 48.744C77.3854 44.5693 78.5014 40.5807 79.6174 36.778C80.7747 32.934 81.9734 29.214 83.2134 25.618C84.4534 22.022 85.7761 18.488 87.1814 15.016C88.6281 11.544 90.1781 8.072 91.8314 4.6L99.5814 3.856C101.235 7.28667 102.764 10.7173 104.169 14.148C105.575 17.5787 106.897 21.1127 108.137 24.75C109.419 28.346 110.617 32.066 111.733 35.91C112.891 39.754 114.027 43.784 115.143 48L106.711 48.744C106.133 46.5533 105.554 44.3627 104.975 42.172C104.397 39.94 103.818 37.708 103.239 35.476H87.9254C87.3467 37.5013 86.7887 39.5473 86.2514 41.614C85.7141 43.6807 85.2181 45.8093 84.7634 48L76.2694 48.744ZM95.7374 11.606C93.3401 17.4753 91.2527 23.5307 89.4754 29.772H101.689C100.78 26.672 99.8294 23.5927 98.8374 20.534C97.8867 17.4753 96.8534 14.4993 95.7374 11.606ZM128.185 0.259997C128.061 1.70667 127.957 3.19467 127.875 4.724C127.833 6.25333 127.792 7.948 127.751 9.808C127.751 11.6267 127.73 13.6727 127.689 15.946C127.689 18.2193 127.689 20.8233 127.689 23.758C127.689 26.486 127.689 28.966 127.689 31.198C127.689 33.3887 127.689 35.4347 127.689 37.336C127.73 39.2373 127.751 41.056 127.751 42.792C127.792 44.4867 127.833 46.2227 127.875 48H119.505C119.546 45.8507 119.587 43.9493 119.629 42.296C119.711 40.6427 119.773 38.9273 119.815 37.15C119.856 35.3313 119.897 33.2853 119.939 31.012C119.98 28.6973 120.001 25.804 120.001 22.332C120.001 18.8187 119.98 15.3053 119.939 11.792C119.897 8.23733 119.815 4.6 119.691 0.879997L128.185 0.259997ZM141.822 48.744C139.218 48.744 137.11 47.8553 135.498 46.078C133.927 44.3007 133.142 41.986 133.142 39.134C133.142 36.158 134.01 33.7813 135.746 32.004C137.482 30.2267 139.796 29.338 142.69 29.338C143.888 29.338 145.087 29.5033 146.286 29.834C147.484 30.1647 148.559 30.64 149.51 31.26V27.788C149.51 25.8453 149.138 24.4813 148.394 23.696C147.65 22.9107 146.368 22.518 144.55 22.518C143.31 22.518 141.987 22.6833 140.582 23.014C139.218 23.3033 138.122 23.6753 137.296 24.13L135.374 18.178C135.994 17.93 136.738 17.682 137.606 17.434C138.474 17.186 139.404 16.9793 140.396 16.814C141.388 16.6487 142.4 16.5247 143.434 16.442C144.467 16.318 145.418 16.256 146.286 16.256C153.56 16.256 157.198 19.8107 157.198 26.92C157.198 27.54 157.156 28.4493 157.074 29.648C157.032 30.8467 156.97 32.1073 156.888 33.43C156.846 34.7113 156.784 35.91 156.702 37.026C156.66 38.142 156.64 38.9273 156.64 39.382C156.64 40.3327 156.784 41.0147 157.074 41.428C157.363 41.8413 157.9 42.048 158.686 42.048C159.223 42.048 159.843 41.9653 160.546 41.8L159.554 47.752C158.892 47.9587 158.272 48.124 157.694 48.248C157.156 48.372 156.598 48.434 156.02 48.434C154.49 48.434 153.209 48.0207 152.176 47.194C151.142 46.326 150.522 45.1067 150.316 43.536C149.489 45.148 148.332 46.4293 146.844 47.38C145.356 48.2893 143.682 48.744 141.822 48.744ZM144.798 43.04C146.12 43.04 147.236 42.5647 148.146 41.614C149.096 40.6633 149.572 39.4647 149.572 38.018C149.572 36.778 149.2 35.786 148.456 35.042C147.712 34.298 146.678 33.926 145.356 33.926C143.992 33.926 142.917 34.3393 142.132 35.166C141.346 35.9927 140.954 37.1293 140.954 38.576C140.954 39.94 141.284 41.0353 141.946 41.862C142.648 42.6473 143.599 43.04 144.798 43.04ZM170.058 15.884C170.926 17.248 171.608 18.4467 172.104 19.48C172.6 20.472 172.951 21.526 173.158 22.642C173.571 22.022 174.088 21.3607 174.708 20.658C175.328 19.914 176.031 19.232 176.816 18.612C177.601 17.9507 178.469 17.372 179.42 16.876C180.371 16.38 181.383 16.0493 182.458 15.884L183.016 24.688C180.991 24.688 179.11 24.874 177.374 25.246C175.638 25.5767 174.398 26.1553 173.654 26.982C173.695 27.7673 173.716 28.6353 173.716 29.586C173.716 30.4953 173.716 31.5287 173.716 32.686C173.716 34.0087 173.737 35.4347 173.778 36.964C173.819 38.452 173.861 39.8987 173.902 41.304C173.985 42.668 174.067 43.9493 174.15 45.148C174.233 46.3467 174.315 47.2973 174.398 48H165.656C165.697 47.132 165.739 46.1193 165.78 44.962C165.821 43.8047 165.863 42.606 165.904 41.366C165.945 40.126 165.966 38.8653 165.966 37.584C166.007 36.2613 166.028 35.0007 166.028 33.802C166.028 31.9007 165.987 30.3507 165.904 29.152C165.821 27.912 165.656 26.858 165.408 25.99C165.16 25.0807 164.829 24.254 164.416 23.51C164.003 22.766 163.465 21.898 162.804 20.906L170.058 15.884ZM223.643 48.744C223.354 47.7933 223.168 46.76 223.085 45.644C223.044 44.528 223.023 43.5567 223.023 42.73C223.023 41.5727 223.044 40.3947 223.085 39.196C223.168 37.956 223.23 36.778 223.271 35.662C223.354 34.5047 223.416 33.43 223.457 32.438C223.54 31.4047 223.581 30.516 223.581 29.772C223.581 27.3333 223.168 25.6593 222.341 24.75C221.556 23.8407 220.44 23.386 218.993 23.386C217.919 23.386 216.947 23.5513 216.079 23.882C215.211 24.2127 214.426 24.626 213.723 25.122C213.847 25.9487 213.909 26.8373 213.909 27.788C213.909 28.3667 213.889 29.214 213.847 30.33C213.847 31.446 213.827 32.6447 213.785 33.926C213.744 35.166 213.703 36.3647 213.661 37.522C213.661 38.6793 213.661 39.568 213.661 40.188C213.661 41.552 213.744 42.8747 213.909 44.156C214.075 45.396 214.405 46.4293 214.901 47.256L206.159 48.744C205.87 47.7933 205.684 46.76 205.601 45.644C205.56 44.528 205.539 43.5567 205.539 42.73C205.539 41.5727 205.56 40.3947 205.601 39.196C205.684 37.956 205.746 36.778 205.787 35.662C205.87 34.5047 205.932 33.43 205.973 32.438C206.056 31.4047 206.097 30.516 206.097 29.772C206.097 27.3333 205.684 25.6593 204.857 24.75C204.072 23.8407 202.956 23.386 201.509 23.386C200.435 23.386 199.443 23.572 198.533 23.944C197.665 24.2747 196.88 24.688 196.177 25.184C196.26 26.0107 196.301 26.8993 196.301 27.85C196.301 28.8007 196.301 29.9167 196.301 31.198C196.301 33.0993 196.301 34.8147 196.301 36.344C196.301 37.8733 196.301 39.2993 196.301 40.622C196.343 41.9447 196.363 43.2053 196.363 44.404C196.405 45.5613 196.446 46.76 196.487 48H188.055C188.097 47.008 188.138 45.892 188.179 44.652C188.221 43.412 188.262 42.11 188.303 40.746C188.386 39.3407 188.448 37.9147 188.489 36.468C188.531 34.98 188.551 33.554 188.551 32.19C188.551 30.578 188.51 29.276 188.427 28.284C188.345 27.2507 188.179 26.362 187.931 25.618C187.683 24.8327 187.353 24.13 186.939 23.51C186.526 22.8487 185.989 22.1047 185.327 21.278L192.581 16.256C193.408 17.4547 194.069 18.5087 194.565 19.418C195.061 20.286 195.433 21.1953 195.681 22.146C196.301 21.4847 196.983 20.8027 197.727 20.1C198.471 19.3973 199.257 18.7567 200.083 18.178C200.91 17.5993 201.799 17.1447 202.749 16.814C203.7 16.442 204.713 16.256 205.787 16.256C207.317 16.256 208.763 16.69 210.127 17.558C211.491 18.426 212.504 19.9553 213.165 22.146C213.785 21.4847 214.467 20.8027 215.211 20.1C215.955 19.3973 216.741 18.7567 217.567 18.178C218.394 17.5993 219.283 17.1447 220.233 16.814C221.184 16.442 222.197 16.256 223.271 16.256C224.305 16.256 225.297 16.442 226.247 16.814C227.239 17.186 228.107 17.806 228.851 18.674C229.595 19.542 230.195 20.72 230.649 22.208C231.104 23.696 231.331 25.556 231.331 27.788C231.331 28.3667 231.311 29.214 231.269 30.33C231.269 31.446 231.249 32.6447 231.207 33.926C231.166 35.166 231.125 36.3647 231.083 37.522C231.083 38.6793 231.083 39.568 231.083 40.188C231.083 41.552 231.166 42.8747 231.331 44.156C231.497 45.396 231.827 46.4293 232.323 47.256L223.643 48.744Z" fill="#1E1E1F"/>
</svg>
